<?xml version="1.0" encoding="utf-8"?>
<!-- Generator: Adobe Illustrator 27.5.0, SVG Export Plug-In . SVG Version: 6.00 Build 0)  -->
<svg version="1.1" xmlns="http://www.w3.org/2000/svg" xmlns:xlink="http://www.w3.org/1999/xlink" x="0px" y="0px"
	 viewBox="0 0 500 500" style="enable-background:new 0 0 500 500;" xml:space="preserve">
<g id="BACKGROUND">
	<rect style="fill:#FFFFFF;" width="500" height="500"/>
</g>
<g id="OBJECTS">
	<path style="fill:#F1F9FD;" d="M66.18,231.531c-7.634,34.151-5.651,70.998,9.215,102.678c14.866,31.679,43.34,57.522,77.363,65.709
		c21.108,5.079,43.811,3.292,63.865-5.027c18.658-7.74,36.06-23.024,38.536-43.071c2.361-19.119-9.173-37.062-21.565-51.812
		c-12.393-14.75-26.653-29.153-31.556-47.783c-3.944-14.987-1.209-31.121,4.799-45.406c6.009-14.285,15.119-27.02,24.35-39.468
		c12.03-16.221,25.11-35.683,19.205-54.995c-4.781-15.638-21.472-25.425-37.799-26.322c-16.328-0.897-32.204,5.487-46.501,13.424
		C116.365,127.065,78.587,176.025,66.18,231.531z"/>
	<path style="fill:#F1F9FD;" d="M314.964,390.627c42.005-9.476,82.244-37.112,95.807-77.981c8.727-26.297,5.736-55.072-0.543-82.058
		c-8.569-36.831-23.104-72.266-42.867-104.505c-11.184-18.245-24.975-36.242-44.643-44.674
		c-19.668-8.432-46.342-3.737-56.449,15.126c12.513,25.838,11.011,57.965-3.859,82.522c-9.463,15.628-24.411,29.851-24.312,48.12
		c0.11,20.253,18.457,34.853,29.464,51.855c12.057,18.624,15.564,42.553,9.358,63.854c-3.457,11.867-9.737,24.621-4.611,35.867
		c3.323,7.289,10.971,11.915,18.843,13.397C299.025,393.63,307.15,392.39,314.964,390.627z"/>
	<path style="fill:#F1F9FD;" d="M349.297,85.608c4.941,3.014,10.76,6.141,16.225,4.236c6.969-2.429,8.915-11.682,7.115-18.839
		c-3.247-12.915-15.608-22.965-28.914-23.51c-4.819-0.197-10.144,1.027-12.978,4.93c-2.407,3.314-2.46,7.827-1.488,11.806
		c0.972,3.978,2.843,7.68,4.019,11.603C338.617,79.092,343.957,82.35,349.297,85.608z"/>
	<path style="fill:#F1F9FD;" d="M372.38,103.568c-0.766,4.631,3.406,9.423,8.099,9.301c6.027-0.156,9.784-8.702,5.825-13.249
		C382.344,95.074,373.364,97.62,372.38,103.568z"/>
	<path style="fill:#F1F9FD;" d="M102.552,94.054c13.836-11.455,28.284-23.231,45.68-27.704c3.481-0.895,7.15-1.481,10.657-0.695
		c3.507,0.786,6.831,3.193,7.843,6.642c0.969,3.303-0.336,6.933-2.51,9.602c-2.174,2.669-5.122,4.571-7.987,6.48
		c-5.386,5.361-10.771,10.721-16.157,16.082c-4.95,4.927-9.989,9.922-16.116,13.275c-6.127,3.354-13.599,4.904-20.17,2.536
		c-6.253-2.254-11.244-8.943-9.708-15.409C95.161,100.325,98.961,97.028,102.552,94.054z"/>
	<path style="fill:#F1F9FD;" d="M57.056,343.633c7.058,2.514,10.141,10.53,14.856,16.352c4.414,5.451,10.568,9.173,15.737,13.914
		c5.17,4.741,9.582,11.318,8.683,18.274c-0.997,7.713-8.626,13.389-16.376,14.044c-7.749,0.655-15.341-2.777-21.571-7.43
		c-7.735-5.777-13.96-13.557-17.901-22.37c-3.188-7.128-4.854-15.438-2.04-22.722C41.257,346.412,49.7,341.013,57.056,343.633z"/>
	<path style="fill:#F1F9FD;" d="M44.901,304.853c-5.509-0.601-10.826,4.826-10.112,10.322c0.589,4.532,5.01,8.224,9.574,7.996
		c4.564-0.228,8.595-4.342,8.729-8.91C53.226,309.692,49.444,305.348,44.901,304.853z"/>
	<path style="fill:#F1F9FD;" d="M408.647,357.974c2.94,2.03,6.882,1.832,10.348,0.963c7.195-1.803,13.706-6.212,18.053-12.222
		c4.398-6.082,6.278-15.099,1.425-20.825c-4.418-5.212-12.857-5.408-18.767-1.98c-5.91,3.428-9.699,9.588-12.468,15.833
		C404.549,345.807,403.189,354.206,408.647,357.974z"/>
	<path style="fill:#D9D6D5;" d="M355.083,436.643c0,3.682-46.189,6.667-103.167,6.667c-56.977,0-103.167-2.985-103.167-6.667
		c0-3.682,46.189-6.667,103.167-6.667C308.894,429.976,355.083,432.961,355.083,436.643z"/>
	<g>
		<g>
			<path style="fill:none;" d="M122.476,216.633c0.009-0.048,0.013-0.094,0.024-0.143c-2.381-3.103-8.801-1.762-13.456-0.24
				l5.964,10.364C116.67,222.926,119.115,218.918,122.476,216.633z"/>
			<path style="fill:none;" d="M173.646,221.063c0,0,0.211-0.062,0.548-0.153c-0.224-2.945-0.328-6.042-0.301-9.302
				c-8.889,4.332-15.985,6.835-19.982,8.084c1.171,2.351,1.957,4.958,2.479,7.291L173.646,221.063z"/>
			<path style="fill:none;" d="M129.647,221.327c-0.927,4.458-5.389,7.771-9.518,9.938l11.324,2.879
				C132.502,229.655,133.288,223.135,129.647,221.327z"/>
			<path style="fill:none;" d="M369.392,235.955c0.151,0.223,0.276,0.444,0.378,0.664c2.964,1.093,5.64,3.329,7.861,5.766
				l2.393-8.37C376.313,233.745,371.51,233.876,369.392,235.955z"/>
			<path style="fill:none;" d="M363.735,243.096c-2.778,2.73-0.503,8.676,1.55,12.682l10.061-5.4l0.235-0.823
				C371.402,248.762,365.9,246.995,363.735,243.096z"/>
			<path style="fill:none;" d="M341.293,243.344c-0.122-0.082-0.248-0.162-0.365-0.244c-0.739,0.775-1.59,1.503-2.604,2.128
				c0,0-29.515-13.542-49.96-42.531c-2.823,10.9-7.124,22.226-12.643,32.356c5.127,17.831,18.787,50.551,29.142,72.401
				c2.587-19.26,6.91-50.833,7.657-52.356c1.079-2.198,8.66-1.832,8.66-1.832l18.175,1.581
				C339.27,251.202,339.616,246.783,341.293,243.344z"/>
			<path style="fill:none;" d="M355.663,247.119c-0.288-0.481-0.599-0.924-0.936-1.312c-1.581,0.779-3.467,1.191-5.871,0.712
				c-0.459-0.092-0.906-0.198-1.341-0.316c-1.578,2.318-2.223,6.068-2.476,9.137l13.51,1.175c-0.074-0.48-0.157-0.974-0.251-1.476
				C356.997,252.569,355.922,249.809,355.663,247.119z"/>
			<path style="fill:none;" d="M146.386,220.563c-0.393,0.22-0.801,0.431-1.225,0.631c-2.218,1.045-4.147,1.1-5.869,0.725
				c-0.234,0.458-0.428,0.963-0.592,1.499c0.397,2.674,0.02,5.611-0.646,8.321c0.03,0.51,0.069,1.009,0.113,1.493l12.827-4.4
				C150.008,225.915,148.478,222.432,146.386,220.563z"/>
			<path style="fill:#8C5427;" d="M225.83,173.482c-18.314,19.205-37.491,31.085-51.937,38.126
				c-0.027,3.261,0.077,6.357,0.301,9.302c1.707-0.46,6.982-1.722,8.299-0.158c1.534,1.821,17.058,41.804,17.909,43.997
				c2.022,0.885,4.136,1.633,6.335,2.248c9.425-21.677,17.947-43.989,18.586-55.073C226.083,198.744,225.644,185.206,225.83,173.482
				z"/>
			<path style="fill:#8C5427;" d="M281.404,191.474c-2.481,9.459-7.17,22.72-7.734,32.81c-0.118,2.12,0.647,5.888,2.051,10.768
				c5.52-10.131,9.82-21.456,12.643-32.356C285.887,199.184,283.546,195.443,281.404,191.474z"/>
			<path style="fill:#8C5427;" d="M239.071,144.17c4.42-0.898,6.833-3.059,8.135-5.375c-7.11-3.961-12.46-12.444-15.232-22.133
				c18.83-5.718,32.628-24.7,32.628-24.7c3.797,4.414,11.758,9.002,17.38,11.906c0.424,14.976-5.434,30.419-17.337,35.54
				c1.838,4.473,5.287,7.397,5.287,7.397l6.016,1.959c4.13,1.283,9.347,10.638,16.097,22.733c-0.182-2.494-0.524-4.794-1.04-6.844
				c-6.938-27.549,0.321-37.474-2.81-57.768c0,0-0.358-49.091-39.975-42.36c-39.618,6.731-29.447,53.638-29.447,53.638
				c0.047,15.885-30.415,35.043-41.178,69.382c19.501-15.389,36.764-34.352,51.876-40.362L239.071,144.17z"/>
			<path style="fill:#EF5431;" d="M328.766,426.234c-0.169-0.295-0.396-0.681-0.661-1.129c-2.581,2.044,0.529,6.311,3.019,8.899
				c2.655,2.759,20.562-0.977,25.615-7.13c3.609-4.394-6.126-8.067-17.896-5.693c0.061,0.202,0.111,0.387,0.141,0.536
				C339.808,425.845,331.096,430.291,328.766,426.234z"/>
			<path style="fill:#FBBC82;" d="M317.343,407.422c3.388,5.518,8.569,13.979,10.762,17.682c0.265,0.448,0.492,0.835,0.661,1.129
				c2.329,4.057,11.041-0.389,10.218-4.518c-0.03-0.15-0.08-0.334-0.141-0.536c-1.015-3.369-6.162-13.687-9.862-20.918
				C326.583,403.232,321.213,406.634,317.343,407.422z"/>
			<path style="fill:#EF5431;" d="M148.654,376.859c-4.202-0.247-6.302-9.8-1.788-11.028c0.328-0.089,0.759-0.211,1.26-0.354
				c-1.325-3.013-6.24-1.083-9.373,0.672c-3.341,1.871-4.252,20.141,0.424,26.586c3.34,4.602,9.353-3.888,10.032-15.877
				C148.998,376.866,148.807,376.868,148.654,376.859z"/>
			<path style="fill:#FBBC82;" d="M148.126,365.476c-0.501,0.143-0.932,0.265-1.26,0.354c-4.514,1.228-2.414,10.781,1.788,11.028
				c0.153,0.009,0.344,0.007,0.555-0.001c3.195-0.118,12.806-2.088,20.488-3.762c-2.621-2.767-4.925-8.755-5.604-12.391
				C158.316,362.456,151.471,364.517,148.126,365.476z"/>
			<path style="fill:#FBBC82;" d="M264.646,139.407c-2.341,1.007-4.911,1.623-7.718,1.749c-3.506,0.157-6.764-0.714-9.721-2.362
				c-1.302,2.316-3.715,4.478-8.135,5.375c0,0,3.628,14.592,14.889,14.949s15.973-12.315,15.973-12.315
				S266.483,143.88,264.646,139.407z"/>
			<path style="fill:#F89C1C;" d="M150.994,228.833l5.395-1.851c-0.522-2.333-1.307-4.94-2.479-7.291
				c-2.299,0.718-3.575,1.023-3.575,1.023c-0.54-0.576-1.018-1.18-1.464-1.794c-0.753,0.577-1.575,1.135-2.485,1.643
				C148.478,222.432,150.008,225.915,150.994,228.833z"/>
			<path style="fill:#F89C1C;" d="M139.292,221.919c-0.34-0.074-0.671-0.163-0.994-0.267c0.175,0.572,0.313,1.161,0.403,1.766
				C138.864,222.882,139.058,222.377,139.292,221.919z"/>
			<path style="fill:#F89C1C;" d="M137.598,233.428l0.569-0.195c-0.044-0.484-0.082-0.983-0.113-1.493
				C137.913,232.315,137.76,232.879,137.598,233.428z"/>
			<path style="fill:#F89C1C;" d="M174.194,220.91c-0.337,0.091-0.548,0.153-0.548,0.153s16.096,49.249,17.15,52.546
				c0,0,2.206-4.404,4.243-5.727c2.038-1.322,5.401-3.034,5.401-3.034s-0.015-0.037-0.039-0.099
				c-0.851-2.194-16.375-42.176-17.909-43.997C181.176,219.188,175.901,220.451,174.194,220.91z"/>
			<path style="fill:#FFD300;" d="M173.646,221.063l-17.257,5.919l-5.395,1.851l-12.827,4.4l-0.569,0.195
				c-0.217,0.733-0.448,1.436-0.684,2.104l8.138,2.069c0,0,7.348,1.903,7.725,4.322c0.206,1.321-3.754,26.572-7.389,49.217
				c19.096-5.966,46.107-15.344,45.408-17.531C189.742,270.312,173.646,221.063,173.646,221.063z"/>
			<path style="fill:#CA2B2A;" d="M123.302,219.191c-0.272-0.241-0.512-0.548-0.709-0.958c-0.214-0.444-0.234-0.998-0.117-1.601
				c-3.361,2.285-5.806,6.293-7.468,9.981l0.521,0.906C118.815,225.544,123.021,222.41,123.302,219.191z"/>
			<path style="fill:#CA2B2A;" d="M138.7,223.419c-0.09-0.606-0.228-1.194-0.403-1.766c-3.135-1.001-5.56-3.189-7.786-2.748
				c-0.241,0.048-0.48,0.098-0.715,0.15c0.055,0.788,0.002,1.546-0.149,2.273c3.641,1.808,2.856,8.328,1.806,12.816l5.461,1.388
				c0.236-0.668,0.467-1.371,0.684-2.104c0.163-0.549,0.315-1.113,0.456-1.688C138.72,229.03,139.098,226.092,138.7,223.419z"/>
			<path style="fill:#CA2B2A;" d="M152.777,241.923c-0.377-2.419-7.725-4.322-7.725-4.322s-17.144,85.468-17.953,88.834
				c0,0,4.837-0.754,7.265-0.828c2.428-0.074,5.205,1.361,5.205,1.361s2.797-17.015,5.818-35.828
				C149.024,268.495,152.983,243.244,152.777,241.923z"/>
			<path style="fill:#ED3433;" d="M145.052,237.601l-8.138-2.069l-5.461-1.388l-11.324-2.879c-0.649,0.341-1.288,0.652-1.905,0.936
				l4.015,6.977c0,0,3.601,6.323,2.19,8.199c-0.834,1.108-19.24,13.932-34.156,24.235c-6.29,21.919-12.253,43.866-11.172,44.736
				c2.18,1.757,47.189,13.453,47.998,10.087C127.908,323.069,145.052,237.601,145.052,237.601z"/>
			<path style="fill:#F5884D;" d="M369.392,235.955c2.118-2.078,6.921-2.21,10.632-1.941l1.083-3.789
				c-4.681-0.827-11.847-1.271-15.701,2.585C367.157,233.6,368.592,234.773,369.392,235.955z"/>
			<path style="fill:#F5884D;" d="M375.58,249.555l0.449-1.571c-3.397-3.744-7.963-7.494-11.418-5.553
				c-0.339,0.191-0.625,0.417-0.877,0.665C365.9,246.995,371.402,248.762,375.58,249.555z"/>
			<path style="fill:#F5884D;" d="M414.761,279.861c6.932,2.604,11.93,4.467,11.93,4.467s0.133-2.629,1.216-4.364
				c1.082-1.735,3.681-4.935,3.681-4.935c-1.225-0.368-12.53-4.008-24.834-7.978C409.409,271.256,412.147,275.629,414.761,279.861z"
				/>
			<path style="fill:#FCC481;" d="M444.589,235.835c-0.354-2.33-61.009-14.257-61.009-14.257l-2.473,8.648l-1.083,3.789l-2.393,8.37
				c1.455,1.596,2.714,3.271,3.728,4.766l9.412-5.052c0,0,7.566,11.626,15.983,24.953c12.304,3.97,23.609,7.61,24.834,7.978
				C434.379,275.867,444.943,238.165,444.589,235.835z"/>
			<path style="fill:#FCC481;" d="M375.58,249.555l-0.235,0.823l1.89-1.014c-0.38-0.453-0.784-0.916-1.205-1.38L375.58,249.555z"/>
			<path style="fill:#96B03E;" d="M358.549,256.515l0.599,0.052c-0.29-0.494-0.574-1.005-0.85-1.528
				C358.391,255.541,358.474,256.035,358.549,256.515z"/>
			<path style="fill:#96B03E;" d="M341.293,243.344c-1.677,3.439-2.023,7.858-1.937,11.502l5.682,0.494
				c0.253-3.07,0.898-6.82,2.476-9.137C345.011,245.522,342.928,244.434,341.293,243.344z"/>
			<path style="fill:#96B03E;" d="M355.627,245.308c-0.289,0.178-0.589,0.345-0.901,0.499c0.338,0.388,0.648,0.832,0.936,1.312
				C355.604,246.51,355.595,245.906,355.627,245.308z"/>
			<path style="fill:#96B03E;" d="M312.52,255.098c-0.747,1.522-5.071,33.095-7.657,52.356c3.439,7.258,6.512,13.311,8.788,17.225
				c0.789,0.373,1.325,0.636,1.325,0.636c0.227-3.455,6.205-72.049,6.205-72.049S313.599,252.9,312.52,255.098z"/>
			<path style="fill:#B6D44C;" d="M373.009,330.76c0,0-26.326-59.849-26.543-62.287c-0.218-2.438,6.454-6.058,6.454-6.058
				l7.399-3.971c-0.39-0.591-0.784-1.217-1.171-1.876l-0.599-0.052l-13.51-1.175l-5.682-0.494l-18.175-1.581
				c0,0-5.978,68.594-6.205,72.049c-0.227,3.454,64.679,7.579,67.282,6.549c0.375-0.148,0.66-1.776,0.875-4.445
				c-1.633,0.174-3.969,0.455-5.4,0.765C375.359,328.698,373.009,330.76,373.009,330.76z"/>
			<path style="fill:#ED343C;" d="M369.77,236.619c0.259,0.557,0.373,1.099,0.273,1.581c-0.608,2.928-3.833,2.384-7.522,2.562
				c-2.268,0.109-4.093,2.817-6.893,4.546c-0.032,0.598-0.023,1.202,0.035,1.811c0.259,2.69,1.335,5.45,2.635,7.92
				c0.276,0.524,0.56,1.035,0.85,1.528c0.387,0.659,0.781,1.286,1.171,1.876l4.965-2.665c-2.052-4.006-4.328-9.953-1.55-12.682
				c0.252-0.248,0.538-0.474,0.877-0.665c3.455-1.941,8.021,1.809,11.418,5.553c0.421,0.464,0.825,0.927,1.205,1.38l4.124-2.214
				c-1.014-1.495-2.273-3.169-3.728-4.766C375.41,239.948,372.734,237.712,369.77,236.619z"/>
			<path style="fill:#ED343C;" d="M352.921,262.415c0,0-6.672,3.62-6.454,6.058c0.218,2.438,26.543,62.287,26.543,62.287
				s2.349-2.063,4.723-2.577c1.431-0.31,3.767-0.59,5.4-0.765c1.076-0.115,1.85-0.184,1.85-0.184
				C383.386,324.163,352.921,262.415,352.921,262.415z"/>
			<path style="fill:#F05D5E;" d="M390.771,242.098l-9.412,5.052l-4.124,2.214l-1.89,1.014l-10.061,5.4l-4.965,2.665l-7.399,3.971
				c0,0,30.465,61.748,32.063,64.819c1.598,3.071,42.455-19.14,44.146-21.37c0.724-0.955-6.207-12.787-14.369-26.003
				c-2.614-4.232-5.352-8.604-8.007-12.809C398.337,253.724,390.771,242.098,390.771,242.098z"/>
			<path style="fill:#FBBC82;" d="M341.293,243.344c1.635,1.09,3.718,2.178,6.222,2.859c0.435,0.118,0.881,0.225,1.341,0.316
				c2.404,0.479,4.29,0.067,5.871-0.712c0.312-0.154,0.612-0.32,0.901-0.499c2.801-1.728,4.626-4.436,6.893-4.546
				c3.689-0.178,6.914,0.366,7.522-2.562c0.1-0.482-0.014-1.025-0.273-1.581c-0.102-0.22-0.228-0.442-0.378-0.664
				c-0.799-1.182-2.235-2.355-3.985-3.145c-2.148-0.97-4.752-1.359-7.189-0.436c-3.809,1.444-9.188,2.54-13.344,2.873
				c-0.475,2.268-1.552,5.341-3.947,7.852C341.044,243.181,341.171,243.262,341.293,243.344z"/>
			<path style="fill:#384F5A;" d="M122.5,216.49c0.355-1.534,1.658-3.377,3.503-4.765c-5.283-4.382-13.884-1.728-19.197,0.636
				l2.238,3.889C113.699,214.728,120.12,213.387,122.5,216.49z"/>
			<path style="fill:#384F5A;" d="M129.647,221.327c0.151-0.727,0.204-1.485,0.149-2.273c-2.763,0.606-5.096,1.375-6.494,0.137
				c-0.281,3.219-4.487,6.353-7.773,8.328l2.694,4.682c0.617-0.284,1.255-0.595,1.905-0.936
				C124.258,229.098,128.72,225.785,129.647,221.327z"/>
			<path style="fill:#384F5A;" d="M124.429,247.376c1.411-1.875-2.19-8.199-2.19-8.199s-56.047,34.865-58.902,36.557
				c0,0,3.75,2.822,5.423,4.441c1.673,1.62,2.542,4.488,2.542,4.488s8.65-5.923,18.971-13.053
				C105.189,261.308,123.595,248.485,124.429,247.376z"/>
			<path style="fill:#4F6C79;" d="M122.239,239.178l-4.015-6.977l-2.694-4.682l-0.521-0.906l-5.964-10.364l-2.238-3.889
				l-5.108-8.876c0,0-63.744,29.842-63.495,32.514c0.249,2.672,22.279,41.428,25.134,39.736
				C66.192,274.042,122.239,239.178,122.239,239.178z"/>
			<path style="fill:#FBBC82;" d="M122.5,216.49c-0.011,0.049-0.015,0.095-0.024,0.143c-0.117,0.603-0.097,1.157,0.117,1.601
				c0.197,0.409,0.438,0.717,0.709,0.958c1.398,1.239,3.731,0.469,6.494-0.137c0.236-0.052,0.474-0.102,0.715-0.15
				c2.227-0.441,4.651,1.747,7.786,2.748c0.324,0.104,0.655,0.193,0.994,0.267c1.722,0.374,3.652,0.32,5.869-0.725
				c0.424-0.2,0.831-0.411,1.225-0.631c0.91-0.508,1.732-1.066,2.485-1.643c-2.376-3.275-3.482-6.94-3.981-9.416
				c-3.898,0.513-8.632,0.65-12.228,0.222c-2.492-0.297-4.836,0.627-6.659,1.999C124.158,213.113,122.855,214.956,122.5,216.49z"/>
			<path style="fill:#52C0AE;" d="M281.681,359.189c5.422,5.057,28.78,44.361,31.938,47.643c0.766,0.796,2.116,0.917,3.724,0.59
				c3.871-0.788,9.24-4.19,11.639-7.161c0.712-0.882,1.168-1.726,1.238-2.451c0.403-4.18-23.129-46.52-29.225-54.677
				c-0.999-1.337-2.377-2.837-4.016-4.439c-8.361,3.542-18.941,7.164-30.757,9.26C272.394,351.85,278.051,355.804,281.681,359.189z"
				/>
			<path style="fill:#52C0AE;" d="M163.918,359.49c0.032,0.362,0.093,0.773,0.176,1.215c0.678,3.636,2.983,9.624,5.604,12.391
				c1.051,1.11,2.152,1.706,3.22,1.416c4.914-1.334,54.718-9.833,59.029-19.06c0.904-1.936,1.559-4.124,2.026-6.475
				c-8.571-1.092-17.306-3.413-25.939-7.398C205.026,348.543,163.536,355.168,163.918,359.49z"/>
			<path style="fill:#FBBC82;" d="M256.927,141.156c2.807-0.126,5.377-0.742,7.718-1.749c11.903-5.121,17.761-20.564,17.337-35.54
				c-5.622-2.904-13.583-7.492-17.38-11.906c0,0-13.798,18.982-32.628,24.7c2.772,9.689,8.121,18.172,15.232,22.133
				C250.163,140.442,253.421,141.314,256.927,141.156z"/>
			<path style="fill:#EF5431;" d="M275.721,235.053c-1.404-4.881-2.169-8.648-2.051-10.768c0.564-10.09,5.254-23.352,7.734-32.81
				c2.142,3.969,4.483,7.711,6.959,11.223c20.445,28.99,49.96,42.531,49.96,42.531c1.014-0.625,1.865-1.353,2.604-2.128
				c2.395-2.512,3.472-5.584,3.947-7.852c0.389-1.857,0.386-3.173,0.386-3.173c-24.288-8.768-41.185-39.025-53.214-60.58
				c-6.749-12.095-11.966-21.45-16.097-22.733l-6.016-1.959c0,0-4.711,12.671-15.973,12.315s-14.889-14.949-14.889-14.949
				l-9.6,3.012c-15.112,6.01-32.375,24.973-51.876,40.362c-10.397,8.204-21.428,15.395-33.112,19.06c0,0,0.056,1.154,0.408,2.9
				c0.499,2.476,1.605,6.142,3.981,9.416c0.446,0.614,0.923,1.219,1.464,1.794c0,0,1.276-0.305,3.575-1.023
				c3.997-1.249,11.094-3.752,19.982-8.084c14.445-7.041,33.623-18.921,51.937-38.126c-0.186,11.723,0.253,25.262-0.507,38.442
				c-0.639,11.084-9.161,33.396-18.586,55.073c-12.245,28.161-26.016,55.249-26.016,55.249c8.754,8.772,17.973,15.021,27.311,19.332
				c8.633,3.985,17.368,6.306,25.939,7.398c11.24,1.433,22.191,0.762,32.25-1.022c11.816-2.096,22.397-5.717,30.757-9.26
				c11.944-5.061,19.362-9.948,19.362-9.948c-0.677-0.784-1.592-2.18-2.69-4.068c-2.276-3.914-5.349-9.967-8.788-17.225
				C294.508,285.603,280.848,252.884,275.721,235.053z"/>
			<path style="fill:#F9AD66;" d="M264.603,91.962c0,0-13.798,18.982-32.628,24.7c0.169,0.591,0.348,1.177,0.536,1.758
				c12.106-2.11,23.493-8.541,31.202-18.137c5.446,3.043,11.88,4.244,18.067,3.479C276.169,100.853,268.355,96.324,264.603,91.962z"
				/>
			<path style="fill:#F9AD66;" d="M264.727,139.593c-0.026-0.063-0.056-0.122-0.082-0.185c-2.341,1.007-4.911,1.623-7.718,1.749
				c-3.506,0.157-6.764-0.714-9.721-2.362c-1.184,2.105-3.302,4.071-6.993,5.088C248.513,145.838,257.562,144.19,264.727,139.593z"
				/>
			<path style="fill:#F9AD66;" d="M340.927,243.1c0.117,0.081,0.243,0.162,0.365,0.244c1.169,0.78,2.577,1.552,4.195,2.181
				c0.809-3.385,0.646-7.004-0.504-10.288c-0.035,0.003-0.074,0.008-0.109,0.011C344.399,237.516,343.322,240.588,340.927,243.1z"/>
			<path style="fill:#F9AD66;" d="M143.704,209.642c-0.932,2.722-1.454,5.568-0.925,8.366c0.238,1.256,0.752,2.483,1.468,3.564
				c0.3-0.109,0.603-0.232,0.914-0.378c0.424-0.2,0.831-0.411,1.225-0.631c0.91-0.508,1.732-1.066,2.485-1.643
				c-2.376-3.275-3.482-6.94-3.981-9.416C144.504,209.555,144.105,209.599,143.704,209.642z"/>
			<path style="fill:#6E4119;" d="M286.487,102.097c-9.245-3.608-17.159-10.525-21.971-19.206
				c-9.298,12.092-22.314,21.284-36.819,26.001c1.47,16.079-5.195,31.486-11.867,46.348c4.727-3.5,9.274-6.322,13.64-8.059
				l9.6-3.012c4.42-0.898,6.833-3.059,8.135-5.375c-7.11-3.961-12.46-12.444-15.232-22.133c18.83-5.718,32.628-24.7,32.628-24.7
				c3.797,4.414,11.758,9.002,17.38,11.906c0.424,14.976-5.434,30.419-17.337,35.54c1.838,4.473,5.287,7.397,5.287,7.397
				l6.016,1.959c0.713,0.221,1.46,0.699,2.24,1.373C285.199,135.258,288.134,118.466,286.487,102.097z"/>
			<path style="fill:#6E4119;" d="M206.91,190.739c-4.879,12.671-7.679,26.145-8.182,39.715c-0.197,5.319,0.018,10.903,2.638,15.536
				c2.299,4.066,6.213,6.918,10.536,8.815c7.181-17.463,12.902-33.877,13.421-42.881c0.76-13.18,0.321-26.719,0.507-38.442
				C219.548,180.069,213.169,185.776,206.91,190.739z"/>
			<path style="fill:#22B096;" d="M208.032,341.578c-3.006,6.964-44.496,13.589-44.114,17.912c0.032,0.362,0.093,0.773,0.176,1.215
				c0.27,1.449,0.802,3.272,1.506,5.115c10.255-2.958,21.037-4.055,31.332-6.971c8.509-2.41,17.056-6.518,23.039-12.804
				C215.987,344.874,211.999,343.409,208.032,341.578z"/>
			<path style="fill:#22B096;" d="M304.686,375.297c-6.419-11.416-13.544-23.458-24.062-30.758
				c-4.529,1.331-9.343,2.517-14.402,3.415c6.172,3.895,11.829,7.849,15.459,11.235c5.422,5.057,28.78,44.361,31.938,47.643
				c0.766,0.796,2.116,0.917,3.724,0.59c1.027-0.209,2.159-0.606,3.314-1.126c-0.954-4.235-3.114-8.137-5.253-11.941
				C311.831,388.003,308.258,381.65,304.686,375.297z"/>
			<path style="fill:#CF411E;" d="M225.83,173.482c-10.664-0.167-18.872,7.269-27.35,13.739
				c-15.655,11.946-32.979,21.699-51.309,28.895c0.48,0.943,1.037,1.889,1.701,2.804c0.446,0.614,0.923,1.219,1.464,1.794
				c0,0,1.276-0.305,3.575-1.023c3.997-1.249,11.094-3.752,19.982-8.084C188.339,204.568,207.516,192.687,225.83,173.482"/>
			<path style="fill:#CF411E;" d="M340.927,243.1c0.536-0.562,0.997-1.155,1.409-1.758c-16.512-6.394-34.196-25.44-42.587-34.699
				c-9.667-10.667-18.345-15.169-18.345-15.169c2.142,3.969,4.483,7.711,6.959,11.223c20.445,28.99,49.96,42.531,49.96,42.531
				C339.337,244.603,340.188,243.875,340.927,243.1z"/>
			<path style="fill:#CF411E;" d="M233.972,348.977c9.646,1.229,19.074,0.903,27.913-0.34c-0.794-0.23-1.584-0.476-2.367-0.744
				c-12.008-4.104-22.456-12.613-28.906-23.542c-7.479-12.672-9.441-27.805-10.155-42.502c-0.983-20.233,0.111-40.565,3.242-60.578
				c-3.007,12.025-9.714,29.061-16.961,45.726c-12.245,28.161-26.016,55.249-26.016,55.249c8.754,8.772,17.973,15.021,27.311,19.332
				C216.666,345.563,225.401,347.884,233.972,348.977z"/>
			<path style="fill:#CF411E;" d="M250.472,192.93c-4.029,2.081-9.348,1.171-11.681-3.035c-0.528-0.951-1.816-0.116-1.417,0.828
				c2.122,5.013,10.829,8.969,14.754,3.864C252.929,193.546,251.442,192.429,250.472,192.93z"/>
			<path style="fill:#CF411E;" d="M273.454,195.569c-1.98,0.295-3.654,0.57-5.629,0.057c-1.865-0.484-3.114-1.658-4.69-2.641
				c-0.688-0.43-1.364,0.393-1.042,1.042c1.922,3.877,8.566,6.027,12.22,3.577C275.411,196.866,274.681,195.386,273.454,195.569z"/>
			<path style="fill:#CF411E;" d="M275.793,148.712l-5.861-1.908c0,0-4.711,12.671-15.973,12.315s-14.889-14.949-14.889-14.949
				l-4.367,1.37c0.275,5.544,2.76,17.25,18.712,18.769C266.51,165.556,272.864,156.048,275.793,148.712z"/>
			<path style="fill:#CF411E;" d="M146.408,384.313c-1-0.058-1.994,0.063-2.991,0.118c-1.562,0.086-1.559,2.329,0,2.422
				c0.871,0.052,1.762,0.025,2.624,0.175c0.987,0.171,2.25,0.211,2.411-1.052C148.59,384.895,147.265,384.363,146.408,384.313z"/>
			<path style="fill:#CF411E;" d="M149.008,380.297c-1.771-1.161-3.931-0.679-5.925-0.571c-1.606,0.086-1.616,2.435,0,2.5
				c1.778,0.071,3.56,0.204,5.333,0.255C149.638,382.516,149.941,380.909,149.008,380.297z"/>
			<path style="fill:#CF411E;" d="M341.069,420.642c-0.014,0.966-0.134,1.917-0.262,2.873c-0.136,1.016-0.227,1.783,0.462,2.609
				c0.403,0.483,1.216,0.414,1.63,0c0.725-0.725,0.669-1.646,0.747-2.609c0.078-0.959,0.153-1.91,0.119-2.873
				C343.704,418.909,341.095,418.901,341.069,420.642z"/>
			<path style="fill:#CF411E;" d="M349.04,420.309c-0.07-1.248-1.795-1.216-1.914,0c-0.116,1.183-0.695,2.764-0.224,3.9
				c0.23,0.555,0.986,0.941,1.469,0.388C349.343,423.485,349.118,421.686,349.04,420.309z"/>
			<path style="fill:#A26130;" d="M257.324,73.341c-1.228,6.098-6.418,9.78-10.995,13.444c-5.68,4.547-12.54,6.981-18.348,11.208
				c-1.325,0.964-0.588,3.308,1.174,2.784c7.153-2.124,13.827-6.925,19.47-11.696c4.795-4.054,9.943-8.606,10.884-15.138
				C259.711,72.536,257.618,71.884,257.324,73.341z"/>
			<path style="fill:#A26130;" d="M251.025,73.219c-2.624,5.927-8.287,7.839-13.269,11.294c-1.144,0.793-0.466,2.942,1.008,2.392
				c5.329-1.99,13.645-6.728,13.825-13.262C252.612,72.85,251.371,72.436,251.025,73.219z"/>
			<path style="fill:#A26130;" d="M280.05,90.676c-2.17-2.287-4.821-3.956-6.903-6.386c-2.283-2.665-3.547-6.164-4.065-9.589
				c-0.179-1.181-2.03-0.859-2.033,0.275c-0.019,6.954,4.332,16.12,11.672,17.985C280.06,93.302,280.995,91.671,280.05,90.676z"/>
			<path style="fill:#A26130;" d="M279.748,84.034c-1.106-2.906-3.466-5.209-4.741-8.07c-0.205-0.46-0.968-0.434-1.18,0
				c-0.63,1.285,0.319,2.971,0.906,4.118c0.894,1.745,1.883,3.573,3.285,4.959C278.711,85.726,280.132,85.043,279.748,84.034z"/>
			<g>
				<path style="fill:#5A7A88;" d="M85.125,216.374c6.798,1.202,13.573,2.501,20.33,3.915c2.245,0.47,4.489,0.947,6.733,1.424
					l-2.12-3.685c-2.519-0.499-5.033-0.991-7.541-1.451c-6.782-1.244-13.6-2.296-20.419-3.314c-0.242-0.036-0.486-0.079-0.729-0.116
					c-1.195,0.575-2.416,1.164-3.652,1.762C80.208,215.423,82.678,215.941,85.125,216.374z"/>
				<path style="fill:#5A7A88;" d="M118.224,232.201l-1.02-1.773c-8.009-1.258-15.984-2.72-23.972-4.132
					c-9.767-1.727-19.545-3.307-29.379-4.595c-3.854,1.914-7.583,3.792-10.95,5.53c2.024,0.488,4.051,0.956,6.087,1.344
					c10.021,1.911,20.07,3.652,30.074,5.664c10.076,2.027,20.124,4.23,30.257,5.954c0.339,0.058,0.68,0.109,1.019,0.165
					c1.215-0.756,1.898-1.181,1.898-1.181L118.224,232.201z"/>
			</g>
			<g>
				<path style="fill:#F27776;" d="M361.165,279.118c0.86-2.349,1.722-4.697,2.604-7.033c2.367-6.265,4.596-12.561,6.47-18.967
					l-4.164,2.235c-1.649,4.703-3.433,9.359-5.294,13.987c-0.657,1.633-1.34,3.263-2.028,4.894
					C359.51,275.766,360.318,277.404,361.165,279.118z"/>
				<path style="fill:#F27776;" d="M391.864,243.782c-0.7-1.081-1.093-1.684-1.093-1.684l-7.739,4.154
					c-4.818,9.526-8.562,19.633-12.222,29.666c-1.63,4.468-3.091,8.994-4.548,13.522c1.889,3.825,3.83,7.754,5.715,11.566
					c1.907-6.078,3.551-12.247,5.405-18.334c2.728-8.956,5.74-17.887,9.014-26.658C387.946,251.861,389.918,247.826,391.864,243.782
					z"/>
			</g>
			<g>
				<path style="fill:#FFE69F;" d="M431.323,231.745c-4.458-1.07-9.645-2.235-14.927-3.383
					c-12.733,3.545-25.671,6.695-38.017,11.408l-0.748,2.615c0.437,0.48,0.85,0.966,1.251,1.453
					c15.54-4.184,31.253-7.567,46.982-11.02C427.674,232.421,429.497,232.079,431.323,231.745z"/>
				<path style="fill:#FFE69F;" d="M381.107,230.225l-0.214,0.747c4.208-1.688,8.513-3.137,12.852-4.454
					c2.028-0.616,4.083-1.144,6.145-1.644c-2.255-0.465-4.375-0.898-6.295-1.288c-4.09,1.382-8.107,2.999-11.96,4.792
					L381.107,230.225z"/>
			</g>
			<g>
				<path style="fill:#FFF35C;" d="M176.378,253.12c2.856,0.795,5.701,1.624,8.543,2.459c-1.104-3.383-2.274-6.963-3.425-10.489
					c-9.242-2.383-18.567-4.414-27.766-6.974c-4.788-1.332-9.482-3.537-14.249-5.334l-1.314,0.451l-0.569,0.195
					c-0.217,0.733-0.448,1.436-0.684,2.104l8.138,2.069c0,0,7.348,1.903,7.725,4.322c0.046,0.298-0.121,1.826-0.448,4.259
					C160.222,248.879,168.353,250.885,176.378,253.12z"/>
				<path style="fill:#FFF35C;" d="M158.173,226.371c6.202,2.594,12.701,4.427,19.224,6.168c-0.364-1.113-0.709-2.17-1.034-3.165
					c-4.907-1.269-9.795-2.566-14.545-4.254L158.173,226.371z"/>
			</g>
			<g>
				<path style="fill:#F05848;" d="M140.218,261.669c0.437-2.175,0.857-4.266,1.255-6.246c-1.143-2.476-2.269-4.961-3.308-7.486
					c-1.828-4.439-3.551-8.921-5.235-13.417l-1.479-0.376l-1.727-0.439C132.822,243.085,136.036,252.72,140.218,261.669z"/>
				<path style="fill:#F05848;" d="M121.361,266.906c4.193,7.748,8.482,15.677,13.095,23.396c0.797-3.955,1.611-7.997,2.417-12.001
					c-3.885-5.981-7.684-12.025-11.438-18.08c-1.9-3.066-3.782-6.166-5.604-9.306c-1.409,1.021-3.083,2.218-4.955,3.545
					C116.945,258.656,119.136,262.794,121.361,266.906z"/>
			</g>
			<g>
				<path style="fill:#E2E564;" d="M345.039,255.34l-1.211-0.105c-7.954,3.158-15.906,6.362-23.68,9.9
					c-0.065,0.749-0.133,1.525-0.202,2.323c9.839-4.125,20.033-7.461,29.804-11.708L345.039,255.34z"/>
				<path style="fill:#E2E564;" d="M350.858,279.597c-1.294-3.079-2.379-5.709-3.148-7.644c-8.191,2.938-16.357,5.925-24.439,9.158
					c-1.606,0.642-3.159,1.343-4.691,2.069c-0.218,2.513-0.439,5.066-0.659,7.611c2.391-0.968,4.805-1.891,7.267-2.725
					C333.723,285.175,342.292,282.393,350.858,279.597z"/>
			</g>
			<path style="fill:#A26130;" d="M197.106,160.885c-4.121,2.368-8.144,6.91-9.236,11.613c-0.297,1.281,1.456,2.075,2.142,0.903
				c1.08-1.846,1.928-3.807,3.053-5.633c1.325-2.149,3.091-4.004,4.987-5.656C198.736,161.516,197.859,160.452,197.106,160.885z"/>
			<path style="fill:#A26130;" d="M181.245,209.978c-0.358-0.819-1.592-0.682-1.99,0c-0.492,0.843-0.593,1.928-0.678,2.884
				c-0.095,1.078,0.177,2.029,1.131,2.624c0.465,0.29,1.224,0.133,1.47-0.385c0.408-0.861,0.334-1.606,0.355-2.528
				C181.554,211.669,181.613,210.822,181.245,209.978z"/>
			<path style="fill:#8C5427;" d="M253.943,107.05c-3.484-2.081-7.672-0.309-11.25,0.648c-1.445,0.387-0.832,2.526,0.613,2.222
				c1.495-0.314,2.977-0.684,4.476-0.977c1.933-0.377,3.767-0.31,5.718-0.255C254.391,108.713,254.678,107.489,253.943,107.05z"/>
			<path style="fill:#8C5427;" d="M274.247,106.812c-2.036-2.39-6.355-2.186-8.803-0.526c-0.461,0.313-0.339,1.17,0.306,1.128
				c1.201-0.077,2.355-0.354,3.568-0.336c1.502,0.022,2.814,0.527,4.245,0.908C274.28,108.179,274.689,107.33,274.247,106.812z"/>
			<path style="fill:#8C5427;" d="M252.767,114.011c-0.543-1.085-1.514-1.724-2.69-1.924c-2.413-0.411-5.014,1.761-4.835,4.222
				c0.033,0.459,0.711,0.751,0.946,0.256c0.671-1.413,2.86-3.531,4.455-2.086c0.846,0.766,0.899,2.544,2.175,2.739
				c0.366,0.056,0.736-0.087,0.841-0.478C253.904,115.831,253.167,114.812,252.767,114.011z"/>
			<path style="fill:#8C5427;" d="M273.267,113.261c-0.543-1.085-1.514-1.724-2.69-1.924c-2.413-0.411-5.014,1.761-4.835,4.222
				c0.033,0.459,0.711,0.751,0.946,0.256c0.671-1.413,2.86-3.531,4.455-2.086c0.846,0.766,0.899,2.544,2.175,2.739
				c0.366,0.056,0.736-0.087,0.841-0.478C274.404,115.081,273.667,114.062,273.267,113.261z"/>
			<path style="fill:#F8A35A;" d="M260.75,121.415c-0.513,0.017-0.943,0.255-1.432,0.388c-0.621,0.169-1.212,0.048-1.753-0.283
				c-0.701-0.43-1.267,0.615-0.631,1.079c1.101,0.804,3.276,1.045,4.271-0.084C261.558,122.115,261.345,121.395,260.75,121.415z"/>
			<path style="fill:#F8A35A;" d="M260.944,127.536c-0.69,0.301-1.292,0.7-2.013,0.944c-0.723,0.245-1.608,0.143-2.343,0.009
				c-0.288-0.052-0.612,0.328-0.323,0.555c1.667,1.306,4.201,1.048,5.508-0.679C262.186,127.819,261.424,127.327,260.944,127.536z"
				/>
			<path style="fill:#F8A35A;" d="M259.635,130.82c-0.395-0.127-0.716-0.217-1.135-0.194c-0.881,0.048-0.881,1.319,0,1.367
				c0.419,0.023,0.74-0.068,1.135-0.194C260.119,131.644,260.119,130.975,259.635,130.82z"/>
			<path style="fill:#F59488;" d="M246.753,121.518c0.349-1.79-2.074-3.068-3.722-3.079c-1.789-0.011-4.656,1.186-3.996,3.572
				c0.455,1.644,2.341,1.914,3.727,1.822c1.088-0.072,2.657-0.257,3.41-1.173C246.498,122.263,246.682,121.88,246.753,121.518z"/>
			<path style="fill:#F59488;" d="M278.253,120.518c0.349-1.79-2.074-3.068-3.723-3.079c-1.789-0.011-4.656,1.186-3.995,3.572
				c0.455,1.644,2.341,1.914,3.727,1.822c1.088-0.072,2.657-0.257,3.41-1.173C277.998,121.263,278.182,120.88,278.253,120.518z"/>
		</g>
		<g>
			<path style="fill:none;" d="M122.476,216.633c0.009-0.048,0.013-0.094,0.024-0.143c-2.381-3.103-8.801-1.762-13.456-0.24
				l5.964,10.364C116.67,222.926,119.115,218.918,122.476,216.633z"/>
			<path style="fill:none;" d="M173.646,221.063c0,0,0.211-0.062,0.548-0.153c-0.224-2.945-0.328-6.042-0.301-9.302
				c-8.889,4.332-15.985,6.835-19.982,8.084c1.171,2.351,1.957,4.958,2.479,7.291L173.646,221.063z"/>
			<path style="fill:none;" d="M129.647,221.327c-0.927,4.458-5.389,7.771-9.518,9.938l11.324,2.879
				C132.502,229.655,133.288,223.135,129.647,221.327z"/>
			<path style="fill:none;" d="M369.392,235.955c0.151,0.223,0.276,0.444,0.378,0.664c2.964,1.093,5.64,3.329,7.861,5.766
				l2.393-8.37C376.313,233.745,371.51,233.876,369.392,235.955z"/>
			<path style="fill:none;" d="M363.735,243.096c-2.778,2.73-0.503,8.676,1.55,12.682l10.061-5.4l0.235-0.823
				C371.402,248.762,365.9,246.995,363.735,243.096z"/>
			<path style="fill:none;" d="M341.293,243.344c-0.122-0.082-0.248-0.162-0.365-0.244c-0.739,0.775-1.59,1.503-2.604,2.128
				c0,0-29.515-13.542-49.96-42.531c-2.823,10.9-7.124,22.226-12.643,32.356c5.127,17.831,18.787,50.551,29.142,72.401
				c2.587-19.26,6.91-50.833,7.657-52.356c1.079-2.198,8.66-1.832,8.66-1.832l18.175,1.581
				C339.27,251.202,339.616,246.783,341.293,243.344z"/>
			<path style="fill:none;" d="M355.663,247.119c-0.288-0.481-0.599-0.924-0.936-1.312c-1.581,0.779-3.467,1.191-5.871,0.712
				c-0.459-0.092-0.906-0.198-1.341-0.316c-1.578,2.318-2.223,6.068-2.476,9.137l13.51,1.175c-0.074-0.48-0.157-0.974-0.251-1.476
				C356.997,252.569,355.922,249.809,355.663,247.119z"/>
			<path style="fill:none;" d="M146.386,220.563c-0.393,0.22-0.801,0.431-1.225,0.631c-2.218,1.045-4.147,1.1-5.869,0.725
				c-0.234,0.458-0.428,0.963-0.592,1.499c0.397,2.674,0.02,5.611-0.646,8.321c0.03,0.51,0.069,1.009,0.113,1.493l12.827-4.4
				C150.008,225.915,148.478,222.432,146.386,220.563z"/>
			<path style="fill:#8C5427;" d="M225.83,173.482c-18.314,19.205-37.491,31.085-51.937,38.126
				c-0.027,3.261,0.077,6.357,0.301,9.302c1.707-0.46,6.982-1.722,8.299-0.158c1.534,1.821,17.058,41.804,17.909,43.997
				c2.022,0.885,4.136,1.633,6.335,2.248c9.425-21.677,17.947-43.989,18.586-55.073C226.083,198.744,225.644,185.206,225.83,173.482
				z"/>
			<path style="fill:#8C5427;" d="M281.404,191.474c-2.481,9.459-7.17,22.72-7.734,32.81c-0.118,2.12,0.647,5.888,2.051,10.768
				c5.52-10.131,9.82-21.456,12.643-32.356C285.887,199.184,283.546,195.443,281.404,191.474z"/>
			<path style="fill:#8C5427;" d="M239.071,144.17c4.42-0.898,6.833-3.059,8.135-5.375c-7.11-3.961-12.46-12.444-15.232-22.133
				c18.83-5.718,32.628-24.7,32.628-24.7c3.797,4.414,11.758,9.002,17.38,11.906c0.424,14.976-5.434,30.419-17.337,35.54
				c1.838,4.473,5.287,7.397,5.287,7.397l6.016,1.959c4.13,1.283,9.347,10.638,16.097,22.733c-0.182-2.494-0.524-4.794-1.04-6.844
				c-6.938-27.549,0.321-37.474-2.81-57.768c0,0-0.358-49.091-39.975-42.36c-39.618,6.731-29.447,53.638-29.447,53.638
				c0.047,15.885-30.415,35.043-41.178,69.382c19.501-15.389,36.764-34.352,51.876-40.362L239.071,144.17z"/>
			<path style="fill:#EF5431;" d="M328.766,426.234c-0.169-0.295-0.396-0.681-0.661-1.129c-2.581,2.044,0.529,6.311,3.019,8.899
				c2.655,2.759,20.562-0.977,25.615-7.13c3.609-4.394-6.126-8.067-17.896-5.693c0.061,0.202,0.111,0.387,0.141,0.536
				C339.808,425.845,331.096,430.291,328.766,426.234z"/>
			<path style="fill:#FBBC82;" d="M317.343,407.422c3.388,5.518,8.569,13.979,10.762,17.682c0.265,0.448,0.492,0.835,0.661,1.129
				c2.329,4.057,11.041-0.389,10.218-4.518c-0.03-0.15-0.08-0.334-0.141-0.536c-1.015-3.369-6.162-13.687-9.862-20.918
				C326.583,403.232,321.213,406.634,317.343,407.422z"/>
			<path style="fill:#EF5431;" d="M148.654,376.859c-4.202-0.247-6.302-9.8-1.788-11.028c0.328-0.089,0.759-0.211,1.26-0.354
				c-1.325-3.013-6.24-1.083-9.373,0.672c-3.341,1.871-4.252,20.141,0.424,26.586c3.34,4.602,9.353-3.888,10.032-15.877
				C148.998,376.866,148.807,376.868,148.654,376.859z"/>
			<path style="fill:#FBBC82;" d="M148.126,365.476c-0.501,0.143-0.932,0.265-1.26,0.354c-4.514,1.228-2.414,10.781,1.788,11.028
				c0.153,0.009,0.344,0.007,0.555-0.001c3.195-0.118,12.806-2.088,20.488-3.762c-2.621-2.767-4.925-8.755-5.604-12.391
				C158.316,362.456,151.471,364.517,148.126,365.476z"/>
			<path style="fill:#FBBC82;" d="M264.646,139.407c-2.341,1.007-4.911,1.623-7.718,1.749c-3.506,0.157-6.764-0.714-9.721-2.362
				c-1.302,2.316-3.715,4.478-8.135,5.375c0,0,3.628,14.592,14.889,14.949s15.973-12.315,15.973-12.315
				S266.483,143.88,264.646,139.407z"/>
			<path style="fill:#F89C1C;" d="M150.994,228.833l5.395-1.851c-0.522-2.333-1.307-4.94-2.479-7.291
				c-2.299,0.718-3.575,1.023-3.575,1.023c-0.54-0.576-1.018-1.18-1.464-1.794c-0.753,0.577-1.575,1.135-2.485,1.643
				C148.478,222.432,150.008,225.915,150.994,228.833z"/>
			<path style="fill:#F89C1C;" d="M139.292,221.919c-0.34-0.074-0.671-0.163-0.994-0.267c0.175,0.572,0.313,1.161,0.403,1.766
				C138.864,222.882,139.058,222.377,139.292,221.919z"/>
			<path style="fill:#F89C1C;" d="M137.598,233.428l0.569-0.195c-0.044-0.484-0.082-0.983-0.113-1.493
				C137.913,232.315,137.76,232.879,137.598,233.428z"/>
			<path style="fill:#F89C1C;" d="M174.194,220.91c-0.337,0.091-0.548,0.153-0.548,0.153s16.096,49.249,17.15,52.546
				c0,0,2.206-4.404,4.243-5.727c2.038-1.322,5.401-3.034,5.401-3.034s-0.015-0.037-0.039-0.099
				c-0.851-2.194-16.375-42.176-17.909-43.997C181.176,219.188,175.901,220.451,174.194,220.91z"/>
			<path style="fill:#FFD300;" d="M173.646,221.063l-17.257,5.919l-5.395,1.851l-12.827,4.4l-0.569,0.195
				c-0.217,0.733-0.448,1.436-0.684,2.104l8.138,2.069c0,0,7.348,1.903,7.725,4.322c0.206,1.321-3.754,26.572-7.389,49.217
				c19.096-5.966,46.107-15.344,45.408-17.531C189.742,270.312,173.646,221.063,173.646,221.063z"/>
			<path style="fill:#CA2B2A;" d="M123.302,219.191c-0.272-0.241-0.512-0.548-0.709-0.958c-0.214-0.444-0.234-0.998-0.117-1.601
				c-3.361,2.285-5.806,6.293-7.468,9.981l0.521,0.906C118.815,225.544,123.021,222.41,123.302,219.191z"/>
			<path style="fill:#CA2B2A;" d="M138.7,223.419c-0.09-0.606-0.228-1.194-0.403-1.766c-3.135-1.001-5.56-3.189-7.786-2.748
				c-0.241,0.048-0.48,0.098-0.715,0.15c0.055,0.788,0.002,1.546-0.149,2.273c3.641,1.808,2.856,8.328,1.806,12.816l5.461,1.388
				c0.236-0.668,0.467-1.371,0.684-2.104c0.163-0.549,0.315-1.113,0.456-1.688C138.72,229.03,139.098,226.092,138.7,223.419z"/>
			<path style="fill:#CA2B2A;" d="M152.777,241.923c-0.377-2.419-7.725-4.322-7.725-4.322s-17.144,85.468-17.953,88.834
				c0,0,4.837-0.754,7.265-0.828c2.428-0.074,5.205,1.361,5.205,1.361s2.797-17.015,5.818-35.828
				C149.024,268.495,152.983,243.244,152.777,241.923z"/>
			<path style="fill:#ED3433;" d="M145.052,237.601l-8.138-2.069l-5.461-1.388l-11.324-2.879c-0.649,0.341-1.288,0.652-1.905,0.936
				l4.015,6.977c0,0,3.601,6.323,2.19,8.199c-0.834,1.108-19.24,13.932-34.156,24.235c-6.29,21.919-12.253,43.866-11.172,44.736
				c2.18,1.757,47.189,13.453,47.998,10.087C127.908,323.069,145.052,237.601,145.052,237.601z"/>
			<path style="fill:#F5884D;" d="M369.392,235.955c2.118-2.078,6.921-2.21,10.632-1.941l1.083-3.789
				c-4.681-0.827-11.847-1.271-15.701,2.585C367.157,233.6,368.592,234.773,369.392,235.955z"/>
			<path style="fill:#F5884D;" d="M375.58,249.555l0.449-1.571c-3.397-3.744-7.963-7.494-11.418-5.553
				c-0.339,0.191-0.625,0.417-0.877,0.665C365.9,246.995,371.402,248.762,375.58,249.555z"/>
			<path style="fill:#F5884D;" d="M414.761,279.861c6.932,2.604,11.93,4.467,11.93,4.467s0.133-2.629,1.216-4.364
				c1.082-1.735,3.681-4.935,3.681-4.935c-1.225-0.368-12.53-4.008-24.834-7.978C409.409,271.256,412.147,275.629,414.761,279.861z"
				/>
			<path style="fill:#FCC481;" d="M444.589,235.835c-0.354-2.33-61.009-14.257-61.009-14.257l-2.473,8.648l-1.083,3.789l-2.393,8.37
				c1.455,1.596,2.714,3.271,3.728,4.766l9.412-5.052c0,0,7.566,11.626,15.983,24.953c12.304,3.97,23.609,7.61,24.834,7.978
				C434.379,275.867,444.943,238.165,444.589,235.835z"/>
			<path style="fill:#FCC481;" d="M375.58,249.555l-0.235,0.823l1.89-1.014c-0.38-0.453-0.784-0.916-1.205-1.38L375.58,249.555z"/>
			<path style="fill:#96B03E;" d="M358.549,256.515l0.599,0.052c-0.29-0.494-0.574-1.005-0.85-1.528
				C358.391,255.541,358.474,256.035,358.549,256.515z"/>
			<path style="fill:#96B03E;" d="M341.293,243.344c-1.677,3.439-2.023,7.858-1.937,11.502l5.682,0.494
				c0.253-3.07,0.898-6.82,2.476-9.137C345.011,245.522,342.928,244.434,341.293,243.344z"/>
			<path style="fill:#96B03E;" d="M355.627,245.308c-0.289,0.178-0.589,0.345-0.901,0.499c0.338,0.388,0.648,0.832,0.936,1.312
				C355.604,246.51,355.595,245.906,355.627,245.308z"/>
			<path style="fill:#96B03E;" d="M312.52,255.098c-0.747,1.522-5.071,33.095-7.657,52.356c3.439,7.258,6.512,13.311,8.788,17.225
				c0.789,0.373,1.325,0.636,1.325,0.636c0.227-3.455,6.205-72.049,6.205-72.049S313.599,252.9,312.52,255.098z"/>
			<path style="fill:#B6D44C;" d="M373.009,330.76c0,0-26.326-59.849-26.543-62.287c-0.218-2.438,6.454-6.058,6.454-6.058
				l7.399-3.971c-0.39-0.591-0.784-1.217-1.171-1.876l-0.599-0.052l-13.51-1.175l-5.682-0.494l-18.175-1.581
				c0,0-5.978,68.594-6.205,72.049c-0.227,3.454,64.679,7.579,67.282,6.549c0.375-0.148,0.66-1.776,0.875-4.445
				c-1.633,0.174-3.969,0.455-5.4,0.765C375.359,328.698,373.009,330.76,373.009,330.76z"/>
			<path style="fill:#ED343C;" d="M369.77,236.619c0.259,0.557,0.373,1.099,0.273,1.581c-0.608,2.928-3.833,2.384-7.522,2.562
				c-2.268,0.109-4.093,2.817-6.893,4.546c-0.032,0.598-0.023,1.202,0.035,1.811c0.259,2.69,1.335,5.45,2.635,7.92
				c0.276,0.524,0.56,1.035,0.85,1.528c0.387,0.659,0.781,1.286,1.171,1.876l4.965-2.665c-2.052-4.006-4.328-9.953-1.55-12.682
				c0.252-0.248,0.538-0.474,0.877-0.665c3.455-1.941,8.021,1.809,11.418,5.553c0.421,0.464,0.825,0.927,1.205,1.38l4.124-2.214
				c-1.014-1.495-2.273-3.169-3.728-4.766C375.41,239.948,372.734,237.712,369.77,236.619z"/>
			<path style="fill:#ED343C;" d="M352.921,262.415c0,0-6.672,3.62-6.454,6.058c0.218,2.438,26.543,62.287,26.543,62.287
				s2.349-2.063,4.723-2.577c1.431-0.31,3.767-0.59,5.4-0.765c1.076-0.115,1.85-0.184,1.85-0.184
				C383.386,324.163,352.921,262.415,352.921,262.415z"/>
			<path style="fill:#F05D5E;" d="M390.771,242.098l-9.412,5.052l-4.124,2.214l-1.89,1.014l-10.061,5.4l-4.965,2.665l-7.399,3.971
				c0,0,30.465,61.748,32.063,64.819c1.598,3.071,42.455-19.14,44.146-21.37c0.724-0.955-6.207-12.787-14.369-26.003
				c-2.614-4.232-5.352-8.604-8.007-12.809C398.337,253.724,390.771,242.098,390.771,242.098z"/>
			<path style="fill:#FBBC82;" d="M341.293,243.344c1.635,1.09,3.718,2.178,6.222,2.859c0.435,0.118,0.881,0.225,1.341,0.316
				c2.404,0.479,4.29,0.067,5.871-0.712c0.312-0.154,0.612-0.32,0.901-0.499c2.801-1.728,4.626-4.436,6.893-4.546
				c3.689-0.178,6.914,0.366,7.522-2.562c0.1-0.482-0.014-1.025-0.273-1.581c-0.102-0.22-0.228-0.442-0.378-0.664
				c-0.799-1.182-2.235-2.355-3.985-3.145c-2.148-0.97-4.752-1.359-7.189-0.436c-3.809,1.444-9.188,2.54-13.344,2.873
				c-0.475,2.268-1.552,5.341-3.947,7.852C341.044,243.181,341.171,243.262,341.293,243.344z"/>
			<path style="fill:#384F5A;" d="M122.5,216.49c0.355-1.534,1.658-3.377,3.503-4.765c-5.283-4.382-13.884-1.728-19.197,0.636
				l2.238,3.889C113.699,214.728,120.12,213.387,122.5,216.49z"/>
			<path style="fill:#384F5A;" d="M129.647,221.327c0.151-0.727,0.204-1.485,0.149-2.273c-2.763,0.606-5.096,1.375-6.494,0.137
				c-0.281,3.219-4.487,6.353-7.773,8.328l2.694,4.682c0.617-0.284,1.255-0.595,1.905-0.936
				C124.258,229.098,128.72,225.785,129.647,221.327z"/>
			<path style="fill:#384F5A;" d="M124.429,247.376c1.411-1.875-2.19-8.199-2.19-8.199s-56.047,34.865-58.902,36.557
				c0,0,3.75,2.822,5.423,4.441c1.673,1.62,2.542,4.488,2.542,4.488s8.65-5.923,18.971-13.053
				C105.189,261.308,123.595,248.485,124.429,247.376z"/>
			<path style="fill:#4F6C79;" d="M122.239,239.178l-4.015-6.977l-2.694-4.682l-0.521-0.906l-5.964-10.364l-2.238-3.889
				l-5.108-8.876c0,0-63.744,29.842-63.495,32.514c0.249,2.672,22.279,41.428,25.134,39.736
				C66.192,274.042,122.239,239.178,122.239,239.178z"/>
			<path style="fill:#FBBC82;" d="M122.5,216.49c-0.011,0.049-0.015,0.095-0.024,0.143c-0.117,0.603-0.097,1.157,0.117,1.601
				c0.197,0.409,0.438,0.717,0.709,0.958c1.398,1.239,3.731,0.469,6.494-0.137c0.236-0.052,0.474-0.102,0.715-0.15
				c2.227-0.441,4.651,1.747,7.786,2.748c0.324,0.104,0.655,0.193,0.994,0.267c1.722,0.374,3.652,0.32,5.869-0.725
				c0.424-0.2,0.831-0.411,1.225-0.631c0.91-0.508,1.732-1.066,2.485-1.643c-2.376-3.275-3.482-6.94-3.981-9.416
				c-3.898,0.513-8.632,0.65-12.228,0.222c-2.492-0.297-4.836,0.627-6.659,1.999C124.158,213.113,122.855,214.956,122.5,216.49z"/>
			<path style="fill:#52C0AE;" d="M281.681,359.189c5.422,5.057,28.78,44.361,31.938,47.643c0.766,0.796,2.116,0.917,3.724,0.59
				c3.871-0.788,9.24-4.19,11.639-7.161c0.712-0.882,1.168-1.726,1.238-2.451c0.403-4.18-23.129-46.52-29.225-54.677
				c-0.999-1.337-2.377-2.837-4.016-4.439c-8.361,3.542-18.941,7.164-30.757,9.26C272.394,351.85,278.051,355.804,281.681,359.189z"
				/>
			<path style="fill:#52C0AE;" d="M163.918,359.49c0.032,0.362,0.093,0.773,0.176,1.215c0.678,3.636,2.983,9.624,5.604,12.391
				c1.051,1.11,2.152,1.706,3.22,1.416c4.914-1.334,54.718-9.833,59.029-19.06c0.904-1.936,1.559-4.124,2.026-6.475
				c-8.571-1.092-17.306-3.413-25.939-7.398C205.026,348.543,163.536,355.168,163.918,359.49z"/>
			<path style="fill:#FBBC82;" d="M256.927,141.156c2.807-0.126,5.377-0.742,7.718-1.749c11.903-5.121,17.761-20.564,17.337-35.54
				c-5.622-2.904-13.583-7.492-17.38-11.906c0,0-13.798,18.982-32.628,24.7c2.772,9.689,8.121,18.172,15.232,22.133
				C250.163,140.442,253.421,141.314,256.927,141.156z"/>
			<path style="fill:#EF5431;" d="M275.721,235.053c-1.404-4.881-2.169-8.648-2.051-10.768c0.564-10.09,5.254-23.352,7.734-32.81
				c2.142,3.969,4.483,7.711,6.959,11.223c20.445,28.99,49.96,42.531,49.96,42.531c1.014-0.625,1.865-1.353,2.604-2.128
				c2.395-2.512,3.472-5.584,3.947-7.852c0.389-1.857,0.386-3.173,0.386-3.173c-24.288-8.768-41.185-39.025-53.214-60.58
				c-6.749-12.095-11.966-21.45-16.097-22.733l-6.016-1.959c0,0-4.711,12.671-15.973,12.315s-14.889-14.949-14.889-14.949
				l-9.6,3.012c-15.112,6.01-32.375,24.973-51.876,40.362c-10.397,8.204-21.428,15.395-33.112,19.06c0,0,0.056,1.154,0.408,2.9
				c0.499,2.476,1.605,6.142,3.981,9.416c0.446,0.614,0.923,1.219,1.464,1.794c0,0,1.276-0.305,3.575-1.023
				c3.997-1.249,11.094-3.752,19.982-8.084c14.445-7.041,33.623-18.921,51.937-38.126c-0.186,11.723,0.253,25.262-0.507,38.442
				c-0.639,11.084-9.161,33.396-18.586,55.073c-12.245,28.161-26.016,55.249-26.016,55.249c8.754,8.772,17.973,15.021,27.311,19.332
				c8.633,3.985,17.368,6.306,25.939,7.398c11.24,1.433,22.191,0.762,32.25-1.022c11.816-2.096,22.397-5.717,30.757-9.26
				c11.944-5.061,19.362-9.948,19.362-9.948c-0.677-0.784-1.592-2.18-2.69-4.068c-2.276-3.914-5.349-9.967-8.788-17.225
				C294.508,285.603,280.848,252.884,275.721,235.053z"/>
			<path style="fill:#F9AD66;" d="M264.603,91.962c0,0-13.798,18.982-32.628,24.7c0.169,0.591,0.348,1.177,0.536,1.758
				c12.106-2.11,23.493-8.541,31.202-18.137c5.446,3.043,11.88,4.244,18.067,3.479C276.169,100.853,268.355,96.324,264.603,91.962z"
				/>
			<path style="fill:#F9AD66;" d="M264.727,139.593c-0.026-0.063-0.056-0.122-0.082-0.185c-2.341,1.007-4.911,1.623-7.718,1.749
				c-3.506,0.157-6.764-0.714-9.721-2.362c-1.184,2.105-3.302,4.071-6.993,5.088C248.513,145.838,257.562,144.19,264.727,139.593z"
				/>
			<path style="fill:#F9AD66;" d="M340.927,243.1c0.117,0.081,0.243,0.162,0.365,0.244c1.169,0.78,2.577,1.552,4.195,2.181
				c0.809-3.385,0.646-7.004-0.504-10.288c-0.035,0.003-0.074,0.008-0.109,0.011C344.399,237.516,343.322,240.588,340.927,243.1z"/>
			<path style="fill:#F9AD66;" d="M143.704,209.642c-0.932,2.722-1.454,5.568-0.925,8.366c0.238,1.256,0.752,2.483,1.468,3.564
				c0.3-0.109,0.603-0.232,0.914-0.378c0.424-0.2,0.831-0.411,1.225-0.631c0.91-0.508,1.732-1.066,2.485-1.643
				c-2.376-3.275-3.482-6.94-3.981-9.416C144.504,209.555,144.105,209.599,143.704,209.642z"/>
			<path style="fill:#6E4119;" d="M286.487,102.097c-9.245-3.608-17.159-10.525-21.971-19.206
				c-9.298,12.092-22.314,21.284-36.819,26.001c1.47,16.079-5.195,31.486-11.867,46.348c4.727-3.5,9.274-6.322,13.64-8.059
				l9.6-3.012c4.42-0.898,6.833-3.059,8.135-5.375c-7.11-3.961-12.46-12.444-15.232-22.133c18.83-5.718,32.628-24.7,32.628-24.7
				c3.797,4.414,11.758,9.002,17.38,11.906c0.424,14.976-5.434,30.419-17.337,35.54c1.838,4.473,5.287,7.397,5.287,7.397
				l6.016,1.959c0.713,0.221,1.46,0.699,2.24,1.373C285.199,135.258,288.134,118.466,286.487,102.097z"/>
			<path style="fill:#6E4119;" d="M206.91,190.739c-4.879,12.671-7.679,26.145-8.182,39.715c-0.197,5.319,0.018,10.903,2.638,15.536
				c2.299,4.066,6.213,6.918,10.536,8.815c7.181-17.463,12.902-33.877,13.421-42.881c0.76-13.18,0.321-26.719,0.507-38.442
				C219.548,180.069,213.169,185.776,206.91,190.739z"/>
			<path style="fill:#22B096;" d="M208.032,341.578c-3.006,6.964-44.496,13.589-44.114,17.912c0.032,0.362,0.093,0.773,0.176,1.215
				c0.27,1.449,0.802,3.272,1.506,5.115c10.255-2.958,21.037-4.055,31.332-6.971c8.509-2.41,17.056-6.518,23.039-12.804
				C215.987,344.874,211.999,343.409,208.032,341.578z"/>
			<path style="fill:#22B096;" d="M304.686,375.297c-6.419-11.416-13.544-23.458-24.062-30.758
				c-4.529,1.331-9.343,2.517-14.402,3.415c6.172,3.895,11.829,7.849,15.459,11.235c5.422,5.057,28.78,44.361,31.938,47.643
				c0.766,0.796,2.116,0.917,3.724,0.59c1.027-0.209,2.159-0.606,3.314-1.126c-0.954-4.235-3.114-8.137-5.253-11.941
				C311.831,388.003,308.258,381.65,304.686,375.297z"/>
			<path style="fill:#CF411E;" d="M225.83,173.482c-10.664-0.167-18.872,7.269-27.35,13.739
				c-15.655,11.946-32.979,21.699-51.309,28.895c0.48,0.943,1.037,1.889,1.701,2.804c0.446,0.614,0.923,1.219,1.464,1.794
				c0,0,1.276-0.305,3.575-1.023c3.997-1.249,11.094-3.752,19.982-8.084C188.339,204.568,207.516,192.687,225.83,173.482"/>
			<path style="fill:#CF411E;" d="M340.927,243.1c0.536-0.562,0.997-1.155,1.409-1.758c-16.512-6.394-34.196-25.44-42.587-34.699
				c-9.667-10.667-18.345-15.169-18.345-15.169c2.142,3.969,4.483,7.711,6.959,11.223c20.445,28.99,49.96,42.531,49.96,42.531
				C339.337,244.603,340.188,243.875,340.927,243.1z"/>
			<path style="fill:#CF411E;" d="M233.972,348.977c9.646,1.229,19.074,0.903,27.913-0.34c-0.794-0.23-1.584-0.476-2.367-0.744
				c-12.008-4.104-22.456-12.613-28.906-23.542c-7.479-12.672-9.441-27.805-10.155-42.502c-0.983-20.233,0.111-40.565,3.242-60.578
				c-3.007,12.025-9.714,29.061-16.961,45.726c-12.245,28.161-26.016,55.249-26.016,55.249c8.754,8.772,17.973,15.021,27.311,19.332
				C216.666,345.563,225.401,347.884,233.972,348.977z"/>
			<path style="fill:#CF411E;" d="M250.472,192.93c-4.029,2.081-9.348,1.171-11.681-3.035c-0.528-0.951-1.816-0.116-1.417,0.828
				c2.122,5.013,10.829,8.969,14.754,3.864C252.929,193.546,251.442,192.429,250.472,192.93z"/>
			<path style="fill:#CF411E;" d="M273.454,195.569c-1.98,0.295-3.654,0.57-5.629,0.057c-1.865-0.484-3.114-1.658-4.69-2.641
				c-0.688-0.43-1.364,0.393-1.042,1.042c1.922,3.877,8.566,6.027,12.22,3.577C275.411,196.866,274.681,195.386,273.454,195.569z"/>
			<path style="fill:#CF411E;" d="M275.793,148.712l-5.861-1.908c0,0-4.711,12.671-15.973,12.315s-14.889-14.949-14.889-14.949
				l-4.367,1.37c0.275,5.544,2.76,17.25,18.712,18.769C266.51,165.556,272.864,156.048,275.793,148.712z"/>
			<path style="fill:#CF411E;" d="M146.408,384.313c-1-0.058-1.994,0.063-2.991,0.118c-1.562,0.086-1.559,2.329,0,2.422
				c0.871,0.052,1.762,0.025,2.624,0.175c0.987,0.171,2.25,0.211,2.411-1.052C148.59,384.895,147.265,384.363,146.408,384.313z"/>
			<path style="fill:#CF411E;" d="M149.008,380.297c-1.771-1.161-3.931-0.679-5.925-0.571c-1.606,0.086-1.616,2.435,0,2.5
				c1.778,0.071,3.56,0.204,5.333,0.255C149.638,382.516,149.941,380.909,149.008,380.297z"/>
			<path style="fill:#CF411E;" d="M341.069,420.642c-0.014,0.966-0.134,1.917-0.262,2.873c-0.136,1.016-0.227,1.783,0.462,2.609
				c0.403,0.483,1.216,0.414,1.63,0c0.725-0.725,0.669-1.646,0.747-2.609c0.078-0.959,0.153-1.91,0.119-2.873
				C343.704,418.909,341.095,418.901,341.069,420.642z"/>
			<path style="fill:#CF411E;" d="M349.04,420.309c-0.07-1.248-1.795-1.216-1.914,0c-0.116,1.183-0.695,2.764-0.224,3.9
				c0.23,0.555,0.986,0.941,1.469,0.388C349.343,423.485,349.118,421.686,349.04,420.309z"/>
			<path style="fill:#A26130;" d="M257.324,73.341c-1.228,6.098-6.418,9.78-10.995,13.444c-5.68,4.547-12.54,6.981-18.348,11.208
				c-1.325,0.964-0.588,3.308,1.174,2.784c7.153-2.124,13.827-6.925,19.47-11.696c4.795-4.054,9.943-8.606,10.884-15.138
				C259.711,72.536,257.618,71.884,257.324,73.341z"/>
			<path style="fill:#A26130;" d="M251.025,73.219c-2.624,5.927-8.287,7.839-13.269,11.294c-1.144,0.793-0.466,2.942,1.008,2.392
				c5.329-1.99,13.645-6.728,13.825-13.262C252.612,72.85,251.371,72.436,251.025,73.219z"/>
			<path style="fill:#A26130;" d="M280.05,90.676c-2.17-2.287-4.821-3.956-6.903-6.386c-2.283-2.665-3.547-6.164-4.065-9.589
				c-0.179-1.181-2.03-0.859-2.033,0.275c-0.019,6.954,4.332,16.12,11.672,17.985C280.06,93.302,280.995,91.671,280.05,90.676z"/>
			<path style="fill:#A26130;" d="M279.748,84.034c-1.106-2.906-3.466-5.209-4.741-8.07c-0.205-0.46-0.968-0.434-1.18,0
				c-0.63,1.285,0.319,2.971,0.906,4.118c0.894,1.745,1.883,3.573,3.285,4.959C278.711,85.726,280.132,85.043,279.748,84.034z"/>
			<g>
				<path style="fill:#5A7A88;" d="M85.125,216.374c6.798,1.202,13.573,2.501,20.33,3.915c2.245,0.47,4.489,0.947,6.733,1.424
					l-2.12-3.685c-2.519-0.499-5.033-0.991-7.541-1.451c-6.782-1.244-13.6-2.296-20.419-3.314c-0.242-0.036-0.486-0.079-0.729-0.116
					c-1.195,0.575-2.416,1.164-3.652,1.762C80.208,215.423,82.678,215.941,85.125,216.374z"/>
				<path style="fill:#5A7A88;" d="M118.224,232.201l-1.02-1.773c-8.009-1.258-15.984-2.72-23.972-4.132
					c-9.767-1.727-19.545-3.307-29.379-4.595c-3.854,1.914-7.583,3.792-10.95,5.53c2.024,0.488,4.051,0.956,6.087,1.344
					c10.021,1.911,20.07,3.652,30.074,5.664c10.076,2.027,20.124,4.23,30.257,5.954c0.339,0.058,0.68,0.109,1.019,0.165
					c1.215-0.756,1.898-1.181,1.898-1.181L118.224,232.201z"/>
			</g>
			<g>
				<path style="fill:#F27776;" d="M361.165,279.118c0.86-2.349,1.722-4.697,2.604-7.033c2.367-6.265,4.596-12.561,6.47-18.967
					l-4.164,2.235c-1.649,4.703-3.433,9.359-5.294,13.987c-0.657,1.633-1.34,3.263-2.028,4.894
					C359.51,275.766,360.318,277.404,361.165,279.118z"/>
				<path style="fill:#F27776;" d="M391.864,243.782c-0.7-1.081-1.093-1.684-1.093-1.684l-7.739,4.154
					c-4.818,9.526-8.562,19.633-12.222,29.666c-1.63,4.468-3.091,8.994-4.548,13.522c1.889,3.825,3.83,7.754,5.715,11.566
					c1.907-6.078,3.551-12.247,5.405-18.334c2.728-8.956,5.74-17.887,9.014-26.658C387.946,251.861,389.918,247.826,391.864,243.782
					z"/>
			</g>
			<g>
				<path style="fill:#FFE69F;" d="M431.323,231.745c-4.458-1.07-9.645-2.235-14.927-3.383
					c-12.733,3.545-25.671,6.695-38.017,11.408l-0.748,2.615c0.437,0.48,0.85,0.966,1.251,1.453
					c15.54-4.184,31.253-7.567,46.982-11.02C427.674,232.421,429.497,232.079,431.323,231.745z"/>
				<path style="fill:#FFE69F;" d="M381.107,230.225l-0.214,0.747c4.208-1.688,8.513-3.137,12.852-4.454
					c2.028-0.616,4.083-1.144,6.145-1.644c-2.255-0.465-4.375-0.898-6.295-1.288c-4.09,1.382-8.107,2.999-11.96,4.792
					L381.107,230.225z"/>
			</g>
			<g>
				<path style="fill:#FFF35C;" d="M176.378,253.12c2.856,0.795,5.701,1.624,8.543,2.459c-1.104-3.383-2.274-6.963-3.425-10.489
					c-9.242-2.383-18.567-4.414-27.766-6.974c-4.788-1.332-9.482-3.537-14.249-5.334l-1.314,0.451l-0.569,0.195
					c-0.217,0.733-0.448,1.436-0.684,2.104l8.138,2.069c0,0,7.348,1.903,7.725,4.322c0.046,0.298-0.121,1.826-0.448,4.259
					C160.222,248.879,168.353,250.885,176.378,253.12z"/>
				<path style="fill:#FFF35C;" d="M158.173,226.371c6.202,2.594,12.701,4.427,19.224,6.168c-0.364-1.113-0.709-2.17-1.034-3.165
					c-4.907-1.269-9.795-2.566-14.545-4.254L158.173,226.371z"/>
			</g>
			<g>
				<path style="fill:#F05848;" d="M140.218,261.669c0.437-2.175,0.857-4.266,1.255-6.246c-1.143-2.476-2.269-4.961-3.308-7.486
					c-1.828-4.439-3.551-8.921-5.235-13.417l-1.479-0.376l-1.727-0.439C132.822,243.085,136.036,252.72,140.218,261.669z"/>
				<path style="fill:#F05848;" d="M121.361,266.906c4.193,7.748,8.482,15.677,13.095,23.396c0.797-3.955,1.611-7.997,2.417-12.001
					c-3.885-5.981-7.684-12.025-11.438-18.08c-1.9-3.066-3.782-6.166-5.604-9.306c-1.409,1.021-3.083,2.218-4.955,3.545
					C116.945,258.656,119.136,262.794,121.361,266.906z"/>
			</g>
			<g>
				<path style="fill:#E2E564;" d="M345.039,255.34l-1.211-0.105c-7.954,3.158-15.906,6.362-23.68,9.9
					c-0.065,0.749-0.133,1.525-0.202,2.323c9.839-4.125,20.033-7.461,29.804-11.708L345.039,255.34z"/>
				<path style="fill:#E2E564;" d="M350.858,279.597c-1.294-3.079-2.379-5.709-3.148-7.644c-8.191,2.938-16.357,5.925-24.439,9.158
					c-1.606,0.642-3.159,1.343-4.691,2.069c-0.218,2.513-0.439,5.066-0.659,7.611c2.391-0.968,4.805-1.891,7.267-2.725
					C333.723,285.175,342.292,282.393,350.858,279.597z"/>
			</g>
			<path style="fill:#A26130;" d="M197.106,160.885c-4.121,2.368-8.144,6.91-9.236,11.613c-0.297,1.281,1.456,2.075,2.142,0.903
				c1.08-1.846,1.928-3.807,3.053-5.633c1.325-2.149,3.091-4.004,4.987-5.656C198.736,161.516,197.859,160.452,197.106,160.885z"/>
			<path style="fill:#A26130;" d="M181.245,209.978c-0.358-0.819-1.592-0.682-1.99,0c-0.492,0.843-0.593,1.928-0.678,2.884
				c-0.095,1.078,0.177,2.029,1.131,2.624c0.465,0.29,1.224,0.133,1.47-0.385c0.408-0.861,0.334-1.606,0.355-2.528
				C181.554,211.669,181.613,210.822,181.245,209.978z"/>
			<path style="fill:#8C5427;" d="M253.943,107.05c-3.484-2.081-7.672-0.309-11.25,0.648c-1.445,0.387-0.832,2.526,0.613,2.222
				c1.495-0.314,2.977-0.684,4.476-0.977c1.933-0.377,3.767-0.31,5.718-0.255C254.391,108.713,254.678,107.489,253.943,107.05z"/>
			<path style="fill:#8C5427;" d="M274.247,106.812c-2.036-2.39-6.355-2.186-8.803-0.526c-0.461,0.313-0.339,1.17,0.306,1.128
				c1.201-0.077,2.355-0.354,3.568-0.336c1.502,0.022,2.814,0.527,4.245,0.908C274.28,108.179,274.689,107.33,274.247,106.812z"/>
			<path style="fill:#8C5427;" d="M252.767,114.011c-0.543-1.085-1.514-1.724-2.69-1.924c-2.413-0.411-5.014,1.761-4.835,4.222
				c0.033,0.459,0.711,0.751,0.946,0.256c0.671-1.413,2.86-3.531,4.455-2.086c0.846,0.766,0.899,2.544,2.175,2.739
				c0.366,0.056,0.736-0.087,0.841-0.478C253.904,115.831,253.167,114.812,252.767,114.011z"/>
			<path style="fill:#8C5427;" d="M273.267,113.261c-0.543-1.085-1.514-1.724-2.69-1.924c-2.413-0.411-5.014,1.761-4.835,4.222
				c0.033,0.459,0.711,0.751,0.946,0.256c0.671-1.413,2.86-3.531,4.455-2.086c0.846,0.766,0.899,2.544,2.175,2.739
				c0.366,0.056,0.736-0.087,0.841-0.478C274.404,115.081,273.667,114.062,273.267,113.261z"/>
			<path style="fill:#F8A35A;" d="M260.75,121.415c-0.513,0.017-0.943,0.255-1.432,0.388c-0.621,0.169-1.212,0.048-1.753-0.283
				c-0.701-0.43-1.267,0.615-0.631,1.079c1.101,0.804,3.276,1.045,4.271-0.084C261.558,122.115,261.345,121.395,260.75,121.415z"/>
			<path style="fill:#F8A35A;" d="M260.944,127.536c-0.69,0.301-1.292,0.7-2.013,0.944c-0.723,0.245-1.608,0.143-2.343,0.009
				c-0.288-0.052-0.612,0.328-0.323,0.555c1.667,1.306,4.201,1.048,5.508-0.679C262.186,127.819,261.424,127.327,260.944,127.536z"
				/>
			<path style="fill:#F8A35A;" d="M259.635,130.82c-0.395-0.127-0.716-0.217-1.135-0.194c-0.881,0.048-0.881,1.319,0,1.367
				c0.419,0.023,0.74-0.068,1.135-0.194C260.119,131.644,260.119,130.975,259.635,130.82z"/>
			<path style="fill:#F59488;" d="M246.753,121.518c0.349-1.79-2.074-3.068-3.722-3.079c-1.789-0.011-4.656,1.186-3.996,3.572
				c0.455,1.644,2.341,1.914,3.727,1.822c1.088-0.072,2.657-0.257,3.41-1.173C246.498,122.263,246.682,121.88,246.753,121.518z"/>
			<path style="fill:#F59488;" d="M278.253,120.518c0.349-1.79-2.074-3.068-3.723-3.079c-1.789-0.011-4.656,1.186-3.995,3.572
				c0.455,1.644,2.341,1.914,3.727,1.822c1.088-0.072,2.657-0.257,3.41-1.173C277.998,121.263,278.182,120.88,278.253,120.518z"/>
			<path style="fill:#F9AD66;" d="M157.208,362.784c0.316,0.682,0.676,1.339,1.084,1.957c2.429,3.678,6.034,6.329,9.792,8.704
				c0.545-0.117,1.084-0.234,1.613-0.35c-2.621-2.767-4.925-8.755-5.604-12.391C161.87,361.379,159.488,362.099,157.208,362.784z"/>
			<path style="fill:#F9AD66;" d="M328.982,400.262c-2.399,2.97-7.768,6.373-11.639,7.161c1.08,1.759,2.342,3.817,3.631,5.924
				c4.006-2.523,7.31-6.183,9.349-10.45C329.863,401.987,329.412,401.102,328.982,400.262z"/>
		</g>
		<path style="fill:#F37847;" d="M156.612,208.26c-0.383-0.639-1.841-2.453-2.696-2.367c-1.201,0.122-3.082,4.592-1.384,4.683
			c1.251,0.067,2.293-0.448,3.457-0.784C156.631,209.606,156.962,208.845,156.612,208.26z"/>
		<path style="fill:#F37847;" d="M171.395,208.009c-0.276-1.079-1.437-2.199-2.374-2.747c-0.813-0.476-1.682,0.179-1.795,0.935
			c-0.49,0.606-0.871,1.302-1.101,2.049c-0.121,0.392,0.139,0.873,0.547,0.963c0.562,0.124,1.1,0.151,1.674,0.132
			C169.251,209.311,171.833,209.719,171.395,208.009z"/>
		<path style="fill:#F37847;" d="M179.492,193.104c-1.427-0.06-2.948,0.033-4.303,0.522c-1.464,0.529-2.16,0.858-1.241,2
			c0.804,0.998,1.887,1.693,2.887,2.472c0.505,0.394,1.088,0.341,1.472-0.19c0.771-1.068,1.396-2.191,2.025-3.342
			C180.693,193.903,180.236,193.135,179.492,193.104z"/>
		<path style="fill:#F37847;" d="M199.413,189.569c-0.355-0.631-3.402-3.584-3.766-2.301c-0.023,0.08-0.056,0.154-0.088,0.229
			c-0.179,0.14-0.282,0.338-0.322,0.56c-0.392,0.543-0.916,1.021-1.139,1.679c-0.141,0.414,0.158,0.867,0.557,0.98
			c1.3,0.371,2.616,0.284,3.951,0.26C199.319,190.963,199.765,190.193,199.413,189.569z"/>
		<path style="fill:#F37847;" d="M208.042,171.648c-0.658-0.746-1.323-1.402-2.058-2.015c-0.144-0.19-0.297-0.367-0.442-0.527
			c-0.162-0.179-0.407-0.27-0.658-0.293c-0.133-0.052-0.257-0.037-0.358,0.029c-0.186,0.044-0.362,0.119-0.485,0.263
			c-1.177,1.381-1.221,3.107-1.974,4.685c-0.327,0.686,0.23,1.845,1.129,1.469c1.526-0.638,2.923-1.512,4.456-2.135
			C208.278,172.87,208.515,172.184,208.042,171.648z"/>
		<path style="fill:#F37847;" d="M227.114,166.713c-0.631-1.704-2.483-2.99-4.127-3.601c-0.462-0.171-0.99,0.169-1.141,0.61
			c-0.336-0.05-0.709,0.139-0.721,0.587c-0.036,1.439-1.066,4.056,0.695,4.915c1.488,0.726,3.599-0.883,4.882-1.499
			C227.038,167.564,227.244,167.064,227.114,166.713z"/>
		<path style="fill:#F37847;" d="M245.23,166.456c-1.359-0.406-2.887-0.493-4.281-0.251c-0.405,0.07-0.74,0.542-0.717,0.942
			c0.052,0.907,0.318,1.608,0.972,2.211c0.201,0.511,0.393,1.026,0.623,1.527c0.217,0.472,0.841,0.434,1.177,0.152
			c1.05-0.883,1.769-1.992,2.633-3.038C246.075,167.469,245.94,166.668,245.23,166.456z"/>
		<path style="fill:#F37847;" d="M236.441,185.749c-0.351-1.171-1.33-2.256-2.626-2.234c0.013-0.036,0.03-0.071,0.043-0.107
			c0.143-0.409-0.464-0.634-0.678-0.286c-0.175,0.284-0.365,0.557-0.559,0.827c-0.256,0.209-0.448,0.472-0.548,0.761
			c-0.327,0.456-0.641,0.919-0.889,1.427c-0.205,0.421-0.053,0.997,0.453,1.114c1.38,0.319,2.77,0.153,4.107-0.275
			C236.252,186.814,236.602,186.286,236.441,185.749z"/>
		<path style="fill:#F37847;" d="M243.858,210.288c-0.451-1.611-0.878-3.411-2.009-4.696c-0.237-0.269-0.482-0.441-0.728-0.545
			c0.041-0.498-0.682-0.727-1.049-0.415c-0.286,0.243-0.574,0.528-0.855,0.838c-0.477,0.378-0.89,0.899-1.18,1.386
			c-0.057,0.096-0.088,0.207-0.105,0.322c-0.263,0.42-0.501,0.841-0.675,1.247c-0.214,0.5-0.048,0.975,0.476,1.171
			c1.66,0.62,3.321,1.244,4.996,1.82C243.402,211.646,244.037,210.929,243.858,210.288z"/>
		<path style="fill:#F37847;" d="M230.561,224.292c-0.151-0.342-0.471-0.469-0.805-0.484c0.019-0.054,0.046-0.104,0.063-0.16
			c0.121-0.386-0.396-0.538-0.607-0.256c-0.235,0.315-0.496,0.604-0.765,0.884c-0.665,0.43-1.25,1.002-1.838,1.52
			c-0.205,0.181-0.302,0.382-0.323,0.58c-0.195,0.202-0.394,0.399-0.573,0.618c-0.364,0.445-0.216,1.01,0.321,1.216
			c1.54,0.591,3.025,1.217,4.693,1.301c0.514,0.026,1.007-0.466,0.98-0.98C231.63,227.015,231.169,225.669,230.561,224.292z"/>
		<path style="fill:#F37847;" d="M242.685,240.343c-0.731-0.468-1.46-0.932-2.128-1.488c-0.466-0.388-1.079-0.38-1.482-0.069
			c-0.222-0.252-0.734-0.162-0.755,0.272c-0.042,0.861-0.026,1.712,0.041,2.572c0.078,1.008,0.455,2.119,0.308,3.123
			c-0.097,0.668,0.605,1.558,1.323,1.017c1.356-1.021,2.201-2.489,3.093-3.905C243.418,241.337,243.183,240.661,242.685,240.343z"/>
		<path style="fill:#F37847;" d="M222.411,257.029c-0.027-0.119-0.08-0.22-0.144-0.311c0.462-0.494-0.269-1.411-0.853-0.982
			c-1.649,1.213-3.425,2.234-5.097,3.413c-0.377,0.266-0.517,0.701-0.294,1.123c0.995,1.881,3.216,2.15,4.977,2.923
			c0.611,0.268,1.316,0.077,1.521-0.619C223.062,260.738,222.822,258.866,222.411,257.029z"/>
		<path style="fill:#F37847;" d="M231.169,275.937c-0.434-0.761-1.282-0.525-1.61,0.066c-0.163-0.015-0.325,0.036-0.412,0.207
			c-0.29,0.57-0.178,1.499-0.206,2.133c-0.036,0.814-0.077,1.644,0.125,2.441c0.575,2.272,3.298,1.456,4.906,1.345
			c0.45-0.031,0.883-0.368,0.86-0.859C234.713,278.777,232.284,277.893,231.169,275.937z"/>
		<path style="fill:#F37847;" d="M215.745,288.808c-0.172-0.307-0.623-0.535-0.971-0.395c-0.611,0.245-1.201,0.538-1.798,0.815
			c-0.739,0.075-1.465,0.218-2.204,0.352c-1.008,0.183-0.916,1.466-0.255,1.95c1.35,0.989,2.897,1.605,4.305,2.496
			c0.456,0.289,1.266,0.037,1.349-0.549C216.402,291.855,216.579,290.296,215.745,288.808z"/>
		<path style="fill:#F37847;" d="M226.344,317.549c-0.346-1.099-0.336-2.273-0.722-3.38c-0.119-0.341-0.42-0.511-0.774-0.44
			c-1.128,0.227-2.23,0.553-3.342,0.843c-0.218,0.009-0.436,0.017-0.661,0.053c-0.746,0.119-0.969,1.209-0.445,1.684
			c1.358,1.229,3.101,1.858,4.838,2.345C225.881,318.834,226.552,318.207,226.344,317.549z"/>
		<path style="fill:#F37847;" d="M207.832,319.918c-0.837-0.954-1.925-1.536-3.007-2.165c-0.159-0.092-0.323-0.104-0.47-0.063
			c-0.473-0.159-1.001,0.068-1.318,0.492c-1.107,1.483-0.734,3.374-0.866,5.088c-0.068,0.878,0.977,1.32,1.663,0.954
			c1.456-0.776,2.876-1.727,3.998-2.95C208.203,320.87,208.188,320.324,207.832,319.918z"/>
		<path style="fill:#F37847;" d="M242.483,331.893c-0.116-0.211-0.285-0.332-0.47-0.392c0.022-0.048,0.05-0.094,0.071-0.142
			c0.04-0.093-0.079-0.213-0.153-0.118c-0.06,0.076-0.128,0.144-0.19,0.219c-0.307,0.007-0.621,0.166-0.816,0.434
			c-0.548,0.751-1.142,1.461-1.686,2.207c-0.452,0.455-0.899,0.915-1.316,1.403c-0.252,0.295-0.348,0.818,0,1.099
			c1.501,1.213,3.397,1.832,5.289,2.104c0.56,0.081,1.274-0.239,1.214-0.925C244.244,335.725,243.474,333.693,242.483,331.893z"/>
		<path style="fill:#F37847;" d="M251.707,294.348c-0.515-2.597-6.323,3.021-7.007,3.68c-0.315,0.304-0.344,0.9,0,1.198
			c1.898,1.644,4.658,1.547,7.011,1.843c0.405,0.051,0.932-0.348,0.989-0.753C252.999,298.186,252.111,296.401,251.707,294.348z"/>
		<path style="fill:#F37847;" d="M255.544,255.893c-1.018-1.955-4.62,3.837-5.019,4.638c-0.358,0.72,0.097,1.381,0.847,1.476
			c0.649,0.082,1.806,0.278,2.658,0.32c0.824,0.04,2.127,0.075,2.731-0.622C258.247,259.99,256.37,257.488,255.544,255.893z"/>
		<path style="fill:#F37847;" d="M260.997,221.157c-1.617-0.151-3.074-0.91-4.727-0.867c-0.853,0.022-1.443,0.804-1.242,1.631
			c0.171,0.703,0.646,1.562,1.28,2.172c0.197,0.457,0.411,0.907,0.685,1.325c0.274,0.418,0.724,0.505,1.164,0.305
			c1.355-0.616,2.746-1.342,3.681-2.536C262.494,222.35,262.089,221.258,260.997,221.157z"/>
		<path style="fill:#F37847;" d="M281.513,166.438c0.008-0.005,0.016-0.009,0.024-0.014c-0.04-0.034-0.088-0.06-0.129-0.093
			c-0.011-0.008-0.016-0.02-0.027-0.028c-0.362-0.25-0.614-0.789-0.819-1.294c0.126-0.197,0.179-0.436,0.092-0.699
			c-0.251-0.756-0.669-1.429-1-2.149c-0.305-0.665-1.143-0.574-1.614-0.208c-0.823,0.638-1.548,1.395-2.257,2.155
			c-0.398,0.427-0.42,1.318,0.204,1.585c1.585,0.678,3.179,1.439,4.798,2.022C281.588,168.003,281.98,166.972,281.513,166.438z"/>
		<path style="fill:#F37847;" d="M265.993,174.975c-1.036-0.574-2.279-0.719-3.421-0.391c-0.242-0.179-0.492-0.349-0.732-0.515
			c-0.734-0.508-1.729,0.328-1.48,1.137c0.188,0.611,0.471,1.185,0.748,1.761c0.399,0.902,0.787,1.807,1.232,2.69
			c0.19,0.379,0.775,0.541,1.127,0.296c1.313-0.914,1.965-2.25,2.917-3.486C266.742,176.003,266.464,175.236,265.993,174.975z"/>
		<path style="fill:#F37847;" d="M279.171,187.202c-0.973-0.182-2.38-0.222-3.267,0.267c-0.442,0.244-0.406,0.77-0.106,1.07
			c-0.122,0.302-0.097,0.675-0.082,1.018c0.032,0.725,0.135,1.496,0.506,2.132c0.302,0.518,0.967,0.552,1.392,0.179
			c1.052-0.924,1.34-2.264,2.07-3.405C279.967,188.022,279.709,187.303,279.171,187.202z"/>
		<path style="fill:#F37847;" d="M270.955,206.614c-1.062-1.296-3.068-2.074-4.693-2.26c-0.697-0.08-1.121,0.711-0.989,1.298
			c0.024,0.105,0.048,0.21,0.072,0.315c-0.001,0.033-0.016,0.057-0.014,0.093c0.046,0.971-0.111,1.877-0.388,2.806
			c-0.19,0.637,0.321,1.139,0.914,1.199c1.889,0.19,3.693-0.895,5.098-2.045C271.404,207.652,271.271,206.999,270.955,206.614z"/>
		<path style="fill:#F37847;" d="M273.049,243.222c-0.569-0.68-1.289-1.127-2.094-1.449c-0.122-0.27-0.288-0.493-0.529-0.598
			c-0.306-0.134-0.742-0.178-0.981,0.127c-0.034,0.043-0.054,0.09-0.081,0.134c-0.231,0.031-0.436,0.173-0.486,0.452
			c-0.208,1.163-0.721,2.258-1.368,3.241c-0.424,0.644,0.153,1.339,0.805,1.403c1.564,0.154,3.246-0.7,4.506-1.543
			C273.461,244.561,273.531,243.798,273.049,243.222z"/>
		<path style="fill:#F37847;" d="M273.965,275.056c-1.712-1.011-3.474-1.919-5.465-2.184c-0.184-0.025-0.333,0.023-0.464,0.095
			c-0.517-0.002-1.035,0.297-1.145,0.853c-0.247,1.246-0.541,2.45-0.605,3.725c-0.043,0.853,0.825,1.361,1.579,1.202
			c1.971-0.413,3.886-1.039,5.824-1.58C274.655,276.898,274.827,275.565,273.965,275.056z"/>
		<path style="fill:#F37847;" d="M266.82,314.053c0.031-0.027,0.064-0.051,0.095-0.079c0.441-0.408-0.019-1.125-0.57-0.979
			c-1.822,0.48-3.455,1.599-5.277,2.117c-0.9,0.256-1.04,1.268-0.509,1.927c1.211,1.502,3.035,2.453,4.866,2.977
			c0.494,0.141,1.212-0.072,1.43-0.582c0.568-1.328,0.933-2.636,0.957-4.09C267.822,314.767,267.382,314.195,266.82,314.053z"/>
		<path style="fill:#F37847;" d="M283.089,293.419c-1.509-0.395-3.096-0.432-4.584,0.073c-0.313,0.107-0.549,0.318-0.689,0.576
			c-0.258,0.232-0.361,0.639-0.049,0.975c0.003,0.004,0.006,0.007,0.01,0.011c0.016,0.038,0.026,0.076,0.047,0.113
			c0.429,0.787,1.021,1.386,1.756,1.814c0.415,0.391,0.862,0.797,1.113,1.249c0.271,0.486,1.114,0.679,1.491,0.192
			c0.785-1.015,1.332-2.362,1.71-3.586C284.077,294.241,283.682,293.574,283.089,293.419z"/>
		<path style="fill:#F37847;" d="M289.31,322.363c-0.458-0.414-1.391-0.451-1.678,0.216c-0.004,0.009-0.009,0.017-0.013,0.026
			c-0.062,0.013-0.124,0.033-0.185,0.063c-0.577,0.279-0.809,1.379-1.057,1.922c-0.424,0.926-0.915,1.829-1.459,2.69
			c-0.308,0.489-0.119,1.214,0.39,1.488c1.65,0.89,4.759,0.72,6.069-0.722C292.891,326.381,290.567,323.501,289.31,322.363z
			 M289.619,326.645c-0.269,0.234-0.705,0.359-1.198,0.402c0.163-0.053,0.304-0.169,0.337-0.347
			c0.079-0.425-0.043-0.567,0.357-0.909c0.02-0.017,0.027-0.038,0.044-0.056c0.128,0.214,0.259,0.427,0.371,0.65
			C289.571,326.467,289.593,326.557,289.619,326.645z"/>
		<path style="fill:#F37847;" d="M292.374,186.534c-0.263-1.332-0.566-2.63-1.143-3.866c-0.23-0.492-1.106-0.515-1.328,0
			c-0.209,0.484-0.461,0.923-0.762,1.325c-0.395,0.22-0.758,0.485-1.139,0.729c-0.543,0.348-0.819,1.286-0.225,1.748
			c1.096,0.852,2.334,1.139,3.697,1.245C292.118,187.766,292.483,187.085,292.374,186.534z"/>
		<path style="fill:#F37847;" d="M302.005,199.027c-1.052-0.343-2.242-0.502-3.358-0.347c-0.596-0.228-1.254-0.334-1.84-0.35
			c-0.873-0.024-1.658,1.111-1.079,1.88c0.84,1.117,1.378,2.4,2.06,3.612c0.463,0.822,1.533,0.689,2.024,0
			c0.141-0.198,0.498-0.392,0.685-0.559c0.307-0.275,0.569-0.599,0.824-0.921c0.488-0.616,0.887-1.282,1.225-1.99
			C302.802,199.813,302.591,199.218,302.005,199.027z"/>
		<path style="fill:#F37847;" d="M314.284,211.523c-0.756-0.666-1.543-1.187-2.512-1.487c-0.511-0.158-1.174,0.094-1.443,0.554
			c-0.099,0.169-0.157,0.408-0.157,0.603c0,0.048,0.058,0.238,0.106,0.386c-0.208,0.336-0.38,0.697-0.526,1.033
			c-0.203,0.468-0.184,1.156,0.368,1.404c1.376,0.619,3.206,0.314,4.164-0.909C314.641,212.652,314.783,211.962,314.284,211.523z"/>
		<path style="fill:#F37847;" d="M321.848,223.371c-1.346-1.098-3.103-1.511-4.687-2.146c-0.364-0.146-0.611,0.072-0.692,0.362
			c-0.578-0.093-1.192,0.328-1.267,1.035c-0.036,0.338-0.332,0.701-0.33,1.11c0.003,0.497,0.019,0.992,0.049,1.489
			c0.034,0.555,0.387,1.226,1.004,1.318c2.01,0.302,4.375-0.386,5.923-1.693C322.252,224.506,322.263,223.71,321.848,223.371z"/>
		<path style="fill:#F37847;" d="M335.175,230.215c-1.147-0.606-2.378-0.882-3.6-1.282c-0.915-0.299-1.714,1.006-0.96,1.649
			c0.02,0.017,0.032,0.039,0.051,0.056c0.147,1.324-0.394,3.248,1.505,3.439c0.749,0.075,1.514-0.543,2.05-0.979
			c0.496-0.403,1.042-0.962,1.302-1.555C335.728,231.076,335.682,230.483,335.175,230.215z"/>
	</g>
</g>

</svg>
